<svg width="44" height="44" viewBox="0 0 44 44" fill="none" xmlns="http://www.w3.org/2000/svg">
<rect width="44" height="44" rx="5" fill="#D4DFF5"/>
<g clip-path="url(#clip0_74_1617)">
<path d="M17.8647 15.4501C17.8647 15.4501 19.1165 17.9947 18.3501 19.5941C17.5837 21.1935 16.6739 20.9611 15.9096 21.7046C15.9095 21.7047 15.9093 21.7048 15.9092 21.705C15.1076 22.2459 14.5801 23.1639 14.5801 24.2058C14.5801 25.8694 15.9248 27.218 17.5838 27.218C18.887 27.218 19.9931 26.3842 20.409 25.2207C20.4111 25.217 20.4137 25.2144 20.4157 25.2104C20.8001 24.4684 20.9212 21.0323 21.564 19.5941C21.8726 18.9035 22.481 18.312 23.0309 17.8817C23.95 17.3773 24.7033 17.3274 25.3664 17.4269C25.4488 17.44 27.2043 17.7416 27.6604 19.594C27.6604 19.594 27.6604 19.5941 27.6604 19.5942C27.7157 19.8215 27.7464 19.9959 27.7573 20.0622C27.7592 20.0716 27.7599 20.0814 27.7619 20.0909L27.762 20.0918C27.9915 21.2086 28.9773 22.0484 30.159 22.0484C31.5107 22.0484 32.6064 20.9495 32.6064 19.594C32.6064 18.6671 32.0939 17.8608 31.3377 17.4432C31.3377 17.4432 31.3371 17.4428 31.3367 17.4427C31.2353 17.3867 31.1286 17.3399 31.0193 17.2986C29.8292 16.8201 28.4805 16.9855 27.1879 16.0985C27.1291 16.0582 27.0773 16.0143 27.0241 15.9709C26.9896 15.9395 26.9523 15.9038 26.918 15.8703C26.689 15.6173 26.0969 14.8195 26.0266 13.2674C26.0266 13.2674 26.0257 13.2748 26.0241 13.2887C25.8791 11.0379 24.0178 9.25586 21.7367 9.25586C19.4556 9.25586 17.4352 11.1872 17.4352 13.5697C17.4352 14.2441 17.5939 14.8799 17.8691 15.4485L17.8645 15.4499L17.8647 15.4501ZM26.0248 13.926L26.0242 13.9235L26.024 13.9192C26.0242 13.9214 26.0245 13.9238 26.0248 13.926Z" fill="#0041C3"/>
<path d="M33.1323 23.2709C32.6025 23.1818 32.0822 23.2232 31.5991 23.3655L31.5986 23.3617C31.5986 23.3617 29.4342 24.0145 28.2789 23.1977C27.1237 22.3809 27.4264 21.6928 26.9433 20.9906C26.9433 20.9904 26.9432 20.9903 26.9431 20.9903C26.6241 20.2854 25.9726 19.7473 25.1541 19.6097C23.8471 19.3899 22.6099 20.2742 22.3908 21.5848C22.2186 22.6144 22.7275 23.5986 23.5866 24.0809C23.5892 24.083 23.5909 24.0855 23.5937 24.0876C24.1258 24.4894 26.8091 25.0391 27.8541 25.737C28.4713 26.1492 28.9112 26.8995 29.1693 27.446C29.2213 27.5771 29.2793 27.7202 29.3491 27.8859C29.354 27.8979 29.36 27.9082 29.3652 27.9198C29.3892 27.9817 29.412 28.0441 29.4394 28.1043C29.4394 28.1044 29.4401 28.1063 29.4401 28.1063L29.4403 28.106C29.8997 29.108 30.8291 29.8719 31.9952 30.0682C33.8668 30.3829 35.6386 29.1165 35.9525 27.2395C36.2664 25.3626 35.0036 23.5858 33.132 23.2709H33.1323Z" fill="#0041C3"/>
<path d="M12.099 25.9867C12.1004 25.9839 12.1022 25.9819 12.1037 25.9789C12.3695 25.4214 12.3745 22.8804 12.814 21.8022C13.0736 21.1653 13.6714 20.6277 14.1182 20.2929C14.2272 20.2216 14.3459 20.1427 14.4831 20.0488C14.493 20.0421 14.5013 20.0347 14.5108 20.0278C14.5623 19.9946 14.6146 19.9625 14.664 19.9266C14.6641 19.9266 14.6657 19.9255 14.6657 19.9255L14.6654 19.9252C15.4871 19.3239 16.0075 18.3387 15.9712 17.2421C15.9127 15.4824 14.4428 14.1034 12.6881 14.162C10.9333 14.2206 9.55825 15.6947 9.61682 17.4544C9.63336 17.9525 9.76626 18.4182 9.98334 18.8313L9.97993 18.8325C9.97993 18.8325 10.967 20.6812 10.4402 21.8815C9.91348 23.0817 9.23572 22.9326 8.68941 23.5006C8.68941 23.5006 8.68941 23.5009 8.68915 23.5009C8.11028 23.9201 7.74323 24.6112 7.76884 25.3807C7.80968 26.6095 8.83597 27.5725 10.0613 27.5315C11.0239 27.4994 11.8204 26.8562 12.099 25.9866V25.9867Z" fill="#0041C3"/>
<path d="M22.4825 26.8034C21.9154 27.0296 21.4341 27.377 21.0483 27.8004L21.0455 27.797C21.0455 27.797 19.3257 29.7089 17.724 29.597C16.1222 29.4854 16.0124 28.638 15.1311 28.2411C15.131 28.2411 15.1309 28.2409 15.1307 28.2408C14.4071 27.7443 13.4583 27.6062 12.5824 27.9554C11.1837 28.5133 10.5007 30.1028 11.0569 31.5055C11.494 32.6076 12.566 33.2633 13.6837 33.2247C13.6875 33.2252 13.6906 33.2265 13.6946 33.2269C14.4473 33.3032 17.377 32.2534 18.8019 32.3147C19.6421 32.3507 20.5083 32.8184 21.0797 33.1969C21.2072 33.2936 21.3502 33.4001 21.5155 33.5202C21.5273 33.5288 21.5393 33.5354 21.5511 33.5435C21.6109 33.5895 21.6694 33.6368 21.7316 33.6791C21.7317 33.6791 21.7335 33.6806 21.7335 33.6806V33.6802C22.768 34.3826 24.1193 34.5763 25.3674 34.0784C27.3706 33.2795 28.3487 31.0033 27.5521 28.9944C26.7555 26.9855 24.4857 26.0046 22.4826 26.8036L22.4825 26.8034Z" fill="#0041C3"/>
</g>
<defs>
<clipPath id="clip0_74_1617">
<rect width="29" height="26" fill="white" transform="translate(7 9)"/>
</clipPath>
</defs>
</svg>
