<svg width="44" height="44" viewBox="0 0 44 44" fill="none" xmlns="http://www.w3.org/2000/svg">
<rect width="44" height="44" rx="5" fill="#D8F1F3"/>
<g clip-path="url(#clip0_74_1627)">
<path d="M16.9758 21.8973L14.0845 20.2149V24.5504L12.2336 23.4626V19.1381L9 17.2559V26.3064L16.9758 30.9478V21.8973Z" fill="#00C0D0"/>
<path d="M13.2188 17.5573L17.0702 15.3473L18.9086 16.4169L15.0698 18.6341L17.9016 20.282L25.8774 15.6415L17.9016 11L9.92578 15.6415L13.2188 17.5573Z" fill="#00C0D0"/>
<path d="M26.8021 17.2548V22.0397C23.8748 23.0312 21.7554 25.8223 21.7554 29.1091C21.7554 29.1545 21.7554 29.1944 21.7608 29.2398L18.8281 30.9486V21.8963L26.8021 17.2539V17.2548Z" fill="#00C0D0"/>
<path d="M29.1563 23.2188C25.9291 23.2188 23.3125 25.8564 23.3125 29.1096C23.3125 32.3628 25.9291 35.0004 29.1563 35.0004C32.3836 35.0004 35.0002 32.3628 35.0002 29.1096C35.0002 25.8564 32.3836 23.2188 29.1563 23.2188ZM31.7954 28.2252L29.1644 31.0244C29.0239 31.1734 28.8285 31.2587 28.6249 31.2587C28.4213 31.2587 28.2259 31.1743 28.0854 31.0244L26.5181 29.3565C26.2353 29.056 26.2488 28.582 26.547 28.2969C26.8451 28.0128 27.3162 28.0255 27.5981 28.326L28.6258 29.4192L30.7173 27.1938C31.0001 26.8932 31.4703 26.8805 31.7684 27.1647C32.0665 27.4498 32.0791 27.9238 31.7972 28.2243L31.7954 28.2252Z" fill="#00C0D0"/>
</g>
<defs>
<clipPath id="clip0_74_1627">
<rect width="26" height="24" fill="white" transform="translate(9 11)"/>
</clipPath>
</defs>
</svg>
