<svg width="44" height="44" viewBox="0 0 44 44" fill="none" xmlns="http://www.w3.org/2000/svg">
<rect width="44" height="44" rx="5" fill="#D8E8F4"/>
<path fill-rule="evenodd" clip-rule="evenodd" d="M24.1658 12.196C23.5946 9.268 19.4054 9.268 18.8342 12.196C18.4866 13.9777 16.5226 14.9235 14.9129 14.0844C12.2675 12.7054 9.65564 15.9806 11.5887 18.2528C12.765 19.6355 12.2799 21.7607 10.6202 22.496C7.89273 23.7044 8.82491 27.7886 11.8066 27.6939C13.621 27.6364 14.9801 29.3406 14.5202 31.0967C13.7645 33.9826 17.5388 35.8002 19.3238 33.41C20.4101 31.9556 22.5899 31.9556 23.6762 33.41C25.4612 35.8002 29.2355 33.9826 28.4798 31.0967C28.0199 29.3406 29.379 27.6364 31.1934 27.6939C34.1751 27.7886 35.1073 23.7044 32.3798 22.496C30.7201 21.7607 30.235 19.6355 31.4113 18.2528C33.3444 15.9806 30.7325 12.7054 28.0871 14.0844C26.4774 14.9235 24.5134 13.9777 24.1658 12.196ZM21.5 26.5707C23.6117 26.5707 25.3235 24.8588 25.3235 22.7471C25.3235 20.6355 23.6117 18.9236 21.5 18.9236C19.3883 18.9236 17.6765 20.6355 17.6765 22.7471C17.6765 24.8588 19.3883 26.5707 21.5 26.5707Z" fill="#007FE5"/>
</svg>
