<svg width="44" height="44" viewBox="0 0 44 44" fill="none" xmlns="http://www.w3.org/2000/svg">
<rect width="44" height="44" rx="5" fill="#ECF4DA"/>
<path d="M32.8212 18.1716C32.4345 16.0592 31.4222 14.1016 29.9079 12.5374C29.2625 11.8627 28.5318 11.2697 27.7331 10.7726C26.2629 9.84858 24.5926 9.26611 22.8522 9.07059C22.636 9.05923 22.4208 9.03566 22.2074 9H20.6864C20.67 9.03722 20.6347 9.02365 20.6067 9.02618C20.2151 9.05967 19.8253 9.10288 19.4387 9.17393C16.6919 9.64528 14.2209 11.0823 12.4985 13.2099C11.0447 14.9546 10.1833 17.0927 10.0325 19.331C9.94695 20.4326 10.0304 21.5404 10.2803 22.6183C10.4649 23.4229 10.7458 24.2038 11.1172 24.9453C11.15 25.0086 11.1824 25.0719 11.2157 25.1351C11.8191 26.301 12.6282 27.3554 13.6065 28.2509C15.697 30.1681 18.456 31.2508 21.3332 31.2831C21.4675 31.2849 21.5041 31.3169 21.5033 31.4501C21.4971 32.5857 21.4998 33.7214 21.5001 34.8572C21.5002 34.9013 21.5037 34.9453 21.5063 35C21.5442 34.9851 21.5679 34.9766 21.5908 34.9661C23.7856 33.9808 25.815 32.6811 27.611 31.1104C27.969 30.7944 28.3127 30.464 28.6419 30.1192C28.7831 29.9719 28.9231 29.8219 29.0646 29.6747C29.2831 29.4481 29.4723 29.1949 29.6783 28.9563C29.9163 28.6811 30.1299 28.3885 30.3406 28.0941C30.8087 27.4459 31.2206 26.7613 31.5721 26.0473C31.749 25.6848 31.9174 25.3194 32.0665 24.9455C32.0722 24.939 32.0772 24.932 32.0814 24.9245C32.4825 23.9035 32.7529 22.8387 32.8866 21.7538C32.9349 21.3752 32.9663 20.9942 32.9861 20.6134C33.0287 19.796 32.9734 18.9766 32.8212 18.1716V18.1716ZM20.5 21.8367C20.5011 22.2976 20.4013 22.7535 20.2072 23.1742C20.013 23.5949 19.729 23.9709 19.3738 24.2772C19.3357 24.3115 19.2987 24.3473 19.2615 24.3824C18.8907 24.6685 18.4653 24.8809 18.0096 25.0072C17.812 25.0556 17.6117 25.0924 17.4095 25.1176C17.3412 25.1276 17.2714 25.1131 17.2133 25.0766C17.1553 25.0402 17.113 24.9844 17.0946 24.9198L17.0961 23.6612C17.1037 23.5377 17.0524 23.4054 17.1545 23.2964C17.203 23.2421 17.2677 23.2038 17.3397 23.1868C17.5705 23.1458 17.7937 23.0721 18.0022 22.9678C18.1837 22.8661 18.3415 22.7292 18.4657 22.5654C18.5898 22.4017 18.6777 22.2149 18.7236 22.0166C18.7399 21.9514 18.7556 21.8859 18.7711 21.8204C17.8587 21.8188 16.9464 21.8174 16.0341 21.8161C15.9555 21.8185 15.8769 21.8106 15.8004 21.7927C15.6856 21.763 15.5836 21.6983 15.5096 21.6081C15.4356 21.5179 15.3935 21.407 15.3895 21.2918C15.3878 19.9542 15.3884 18.6165 15.3915 17.2787C15.3697 17.1767 15.3754 17.071 15.4079 16.9717C15.4403 16.8725 15.4986 16.783 15.577 16.7119C15.6709 16.6282 15.7932 16.581 15.9207 16.5792C17.2621 16.579 18.6036 16.5787 19.9452 16.5785C20.031 16.5788 20.1157 16.5983 20.1924 16.6356C20.2692 16.6728 20.3361 16.7267 20.3879 16.793C20.4397 16.8594 20.475 16.9365 20.4911 17.0182C20.5072 17.1 20.5035 17.1842 20.4805 17.2644C20.5016 17.3286 20.5092 17.3962 20.5028 17.4633C20.5031 18.9209 20.5116 20.3791 20.5 21.8367V21.8367ZM27.61 21.8432C27.6034 22.4898 27.4025 23.1204 27.0319 23.658C26.6612 24.1955 26.1369 24.6165 25.5232 24.8695C25.4918 24.8825 25.462 24.8993 25.4314 24.9142L25.3802 24.9281L25.3512 24.944C25.0922 25.0168 24.8285 25.073 24.5618 25.1122C24.5182 25.123 24.4726 25.1239 24.4286 25.1147C24.3845 25.1054 24.3434 25.0864 24.3083 25.059C24.2732 25.0316 24.2452 24.9967 24.2265 24.9569C24.2078 24.9172 24.199 24.8738 24.2006 24.8302C24.1986 24.6906 24.1975 24.5507 24.1963 24.411L24.2038 23.6605C24.2026 23.6052 24.2006 23.5504 24.2008 23.4954C24.201 23.3033 24.2772 23.2222 24.5236 23.1677C24.8374 23.1155 25.1309 22.9822 25.3731 22.7817C25.6487 22.5256 25.8271 22.1868 25.8793 21.8201L23.351 21.8155C23.2593 21.8153 23.1676 21.8166 23.0758 21.8151C22.9981 21.8176 22.9207 21.8044 22.8485 21.7765C22.7763 21.7485 22.7109 21.7063 22.6565 21.6526C22.602 21.5988 22.5596 21.5347 22.5319 21.4642C22.5043 21.3938 22.4921 21.3186 22.496 21.2433C22.4964 19.9221 22.4975 18.601 22.4992 17.2799L22.4969 17.2417C22.4753 17.1285 22.4899 17.0116 22.5387 16.9067C22.5876 16.8017 22.6683 16.7138 22.7702 16.6546C22.8557 16.6033 22.9547 16.5771 23.0552 16.579C24.3879 16.5783 25.7205 16.5779 27.0531 16.5779C27.1389 16.5783 27.2235 16.5978 27.3003 16.6351C27.377 16.6723 27.4439 16.7262 27.4957 16.7926C27.5474 16.8589 27.5827 16.936 27.5988 17.0177C27.6149 17.0995 27.6113 17.1837 27.5883 17.2639C27.6091 17.3281 27.6167 17.3956 27.6105 17.4627C27.6104 18.9228 27.6103 20.383 27.61 21.8432Z" fill="#8FC31F"/>
</svg>
