<svg width="44" height="44" viewBox="0 0 44 44" fill="none" xmlns="http://www.w3.org/2000/svg">
<rect width="44" height="44" rx="5" fill="#F4D9E2"/>
<g clip-path="url(#clip0_74_1626)">
<path d="M16.8372 28.6509C14.2311 28.6509 11.5254 28.1046 10 27.0742V29.4237C10 30.3893 12.5976 31.7252 16.8372 31.7252C17.8922 31.7252 18.849 31.6449 19.6829 31.4999C19.1388 30.6158 18.7753 29.6249 18.6267 28.5634C18.0335 28.6197 17.4304 28.6521 16.8372 28.6521V28.6509Z" fill="#EA4880"/>
<path d="M16.8372 27.4447C17.4476 27.4447 18.0249 27.4207 18.5604 27.3644C18.5935 26.2298 18.8736 25.1599 19.3611 24.1943C18.5358 24.3153 17.6785 24.3716 16.8372 24.3716C14.2311 24.3716 11.5254 23.8241 10 22.7949V25.1444C10 26.11 12.5976 27.4447 16.8372 27.4447Z" fill="#EA4880"/>
<path d="M16.8372 23.1654C18.1403 23.1654 19.2788 23.036 20.243 22.8359C21.126 21.7421 22.3051 20.889 23.6745 20.3906V18.5156C22.1491 19.5448 19.4434 20.0923 16.8372 20.0923C14.2311 20.0923 11.5254 19.546 10 18.5156V20.8651C10 21.8307 12.5976 23.1654 16.8372 23.1654Z" fill="#EA4880"/>
<path d="M16.8392 18.8834C21.0788 18.8834 23.6764 17.5475 23.6764 16.5819V14.2324C22.151 15.2628 19.4454 15.8091 16.8392 15.8091C14.233 15.8091 11.5273 15.2628 10.002 14.2324V16.5819C10.002 17.5475 12.5995 18.8834 16.8392 18.8834Z" fill="#EA4880"/>
<path d="M16.8392 14.6006C20.6153 14.6006 23.6764 13.5708 23.6764 12.3003C23.6764 11.0299 20.6153 10 16.8392 10C13.0631 10 10.002 11.0299 10.002 12.3003C10.002 13.5708 13.0631 14.6006 16.8392 14.6006Z" fill="#EA4880"/>
<path d="M26.4003 21.123C22.76 21.123 19.7988 24.0116 19.7988 27.5615C19.7988 31.1115 22.76 34 26.4003 34C30.0406 34 33.0005 31.1115 33.0005 27.5615C33.0005 24.0116 30.0393 21.123 26.4003 21.123ZM26.9959 30.9365V31.792C26.9959 31.8842 26.9198 31.9573 26.8264 31.9573H25.9729C25.8795 31.9573 25.8034 31.8842 25.8034 31.792V30.9581C24.9326 30.903 24.2276 30.2441 24.1416 29.403C24.1318 29.3084 24.2153 29.2281 24.3124 29.2281H25.177C25.2531 29.2281 25.3232 29.2772 25.3391 29.3503C25.3968 29.6103 25.6339 29.8056 25.9176 29.8056H26.6741C27.12 29.8056 27.5265 29.4941 27.5719 29.0615C27.6235 28.5643 27.2231 28.1426 26.7245 28.1426H26.1681C25.1009 28.1426 24.1466 27.383 24.0422 26.3479C23.9329 25.2504 24.7398 24.3123 25.8046 24.1734V23.3299C25.8046 23.2389 25.8807 23.1646 25.9741 23.1646H26.8277C26.921 23.1646 26.9972 23.2389 26.9972 23.3299V24.1638C27.8679 24.2177 28.5729 24.8778 28.6589 25.7189C28.6687 25.8135 28.5852 25.8938 28.4882 25.8938H27.6235C27.5474 25.8938 27.4774 25.8447 27.4614 25.7728C27.4037 25.5116 27.1666 25.3163 26.8829 25.3163H26.1276C25.6818 25.3163 25.274 25.6278 25.2286 26.0603C25.1758 26.5576 25.5774 26.9793 26.076 26.9793H26.7233C27.9183 26.9793 28.8763 27.9845 28.7584 29.173C28.6662 30.0895 27.9085 30.7868 26.9959 30.9365Z" fill="#EA4880"/>
</g>
<defs>
<clipPath id="clip0_74_1626">
<rect width="23" height="24" fill="white" transform="translate(10 10)"/>
</clipPath>
</defs>
</svg>
