<svg width="44" height="44" viewBox="0 0 44 44" fill="none" xmlns="http://www.w3.org/2000/svg">
<rect width="44" height="44" rx="5" fill="#D8E8F4"/>
<g clip-path="url(#clip0_74_1628)">
<path d="M31.6522 13.2037L28.8063 10.3672C28.6377 10.1889 28.4119 10.1046 28.1861 10.1046C27.9604 10.1046 27.7259 10.1889 27.5573 10.3672C27.2094 10.7151 27.2094 11.2694 27.5573 11.6164L28.8906 12.9498H18.5117C18.5679 13.2405 18.596 13.5419 18.596 13.8326C18.596 14.1234 18.5679 14.4247 18.5117 14.7155H28.8906L27.5573 16.0489C27.2094 16.3968 27.2094 16.9511 27.5573 17.298C27.9051 17.645 28.4594 17.6459 28.8063 17.298L31.6522 14.4616C32.0001 14.1137 32.0001 13.5506 31.6522 13.2027V13.2037Z" fill="#007FE5"/>
<path d="M33.74 29.8277L29.8272 33.7398C29.4832 34.0867 28.9212 34.0867 28.5772 33.7398L24.9231 30.0883H17.4871V31.9693C17.4871 32.4587 17.0908 32.855 16.6014 32.855H11.0665C10.5801 32.855 10.1838 32.4587 10.1838 31.9693V26.434C10.1838 25.9475 10.5801 25.5512 11.0665 25.5512H16.6014C17.0908 25.5512 17.4871 25.9475 17.4871 26.434V28.3179H24.9231L25.9939 27.247L15.8379 17.0902C15.2536 17.4488 14.5704 17.6687 13.8359 17.6687C11.5733 17.6687 9.76518 15.7035 10.0249 13.3922C10.2245 11.6276 11.6596 10.2059 13.4251 10.0208C13.5636 10.0063 13.7003 10.0005 13.8359 10.0005C15.6441 10.0005 17.1547 11.2622 17.5569 12.9494C17.6266 13.242 17.6605 13.5366 17.6605 13.8351C17.6605 14.1336 17.6257 14.4282 17.5569 14.7208C17.4609 15.123 17.2991 15.4961 17.0908 15.8382L27.2468 25.995L28.5753 24.6635C28.7429 24.4987 28.9687 24.4057 29.2032 24.4057C29.4377 24.4057 29.6634 24.4987 29.8282 24.6635L33.74 28.5785C33.9076 28.7433 34.0007 28.9691 34.0007 29.2036C34.0007 29.4381 33.9076 29.6639 33.74 29.8286V29.8277Z" fill="#007FE5"/>
</g>
<defs>
<clipPath id="clip0_74_1628">
<rect width="24" height="24" fill="white" transform="matrix(1 0 0 -1 10 34)"/>
</clipPath>
</defs>
</svg>
