<svg width="44" height="44" viewBox="0 0 44 44" fill="none" xmlns="http://www.w3.org/2000/svg">
<rect width="44" height="44" rx="5" fill="#D4DFF5"/>
<path d="M32.0353 28.3334V22.3333C32.0353 20.6389 30.8109 19.2778 29.074 19.2778H22.6389V14.6944V14.6666C23.7494 14.2222 24.5182 13.1667 24.5182 11.9445C24.5182 10.3334 23.1515 9 21.5 9C19.82 9 18.4818 10.3334 18.4818 11.9445C18.4818 13.1667 19.279 14.2222 20.361 14.6666V14.6944V19.2778H13.926C12.1891 19.2778 10.9647 20.6667 10.9647 22.3333V28.3334C9.82574 28.7778 9 29.8333 9 31.0555C9 32.6666 10.3098 34 11.9897 34C13.6697 34 15.0649 32.6666 15.0649 31.0555C15.0649 29.8333 14.0968 28.7778 13.2426 28.3334V22.3333C13.2426 21.8611 13.4704 21.5 13.926 21.5H20.361V28.3334C19.2221 28.7778 18.4818 29.8333 18.4818 31.0555C18.4818 32.6666 19.8485 34 21.5 34C23.1799 34 24.5182 32.6666 24.5182 31.0555C24.5182 29.8333 23.7779 28.7778 22.6389 28.3334V21.5H29.074C29.5581 21.5 29.7574 21.8889 29.7574 22.3333V28.3334C28.9032 28.7778 27.9635 29.8333 27.9635 31.0555C27.9635 32.6666 29.3588 34 31.0387 34C32.7187 34 34 32.6666 34 31.0555C34 29.8333 33.1743 28.7778 32.0353 28.3334ZM21.5 10.6667C22.2118 10.6667 22.8098 11.25 22.8098 11.9445C22.8098 12.6389 22.2118 13.2222 21.5 13.2222C20.7882 13.2222 20.1902 12.6389 20.1902 11.9445C20.1902 11.25 20.7882 10.6667 21.5 10.6667ZM11.9328 32.3333C11.221 32.3333 10.623 31.75 10.623 31.0555C10.623 30.3611 11.221 29.7778 11.9328 29.7778C12.6446 29.7778 13.2426 30.3611 13.2426 31.0555C13.2426 31.75 12.6446 32.3333 11.9328 32.3333ZM21.5 32.3333C20.7882 32.3333 20.1902 31.75 20.1902 31.0555C20.1902 30.3611 20.7882 29.7778 21.5 29.7778C22.2118 29.7778 22.8098 30.3611 22.8098 31.0555C22.8098 31.75 22.2118 32.3333 21.5 32.3333ZM31.0672 32.3333C30.3553 32.3333 29.7574 31.75 29.7574 31.0555C29.7574 30.3611 30.3553 29.7778 31.0672 29.7778C31.779 29.7778 32.377 30.3611 32.377 31.0555C32.377 31.75 31.779 32.3333 31.0672 32.3333Z" fill="#0041C3"/>
</svg>
