<svg width="44" height="44" viewBox="0 0 44 44" fill="none" xmlns="http://www.w3.org/2000/svg">
<rect width="44" height="44" rx="5" fill="#D8F1F3"/>
<path d="M33.7 20.7492H28.578C28.4874 20.7373 28.3956 20.7373 28.305 20.7492H28.084C28.0161 20.7865 27.9509 20.8282 27.889 20.8742C27.8166 20.9201 27.7472 20.9702 27.681 21.0242C27.6376 21.0753 27.5985 21.1297 27.564 21.1867C27.5044 21.2655 27.4522 21.3491 27.408 21.4367V21.4367L25.328 26.9496L19.907 12.8236C19.8159 12.5823 19.6498 12.3738 19.4311 12.2264C19.2125 12.079 18.952 12 18.685 12C18.418 12 18.1575 12.079 17.9389 12.2264C17.7202 12.3738 17.5541 12.5823 17.463 12.8236L14.46 20.7492H10.3C9.95522 20.7492 9.62456 20.8809 9.38076 21.1153C9.13696 21.3498 9 21.6677 9 21.9993C9 22.3308 9.13696 22.6488 9.38076 22.8832C9.62456 23.1177 9.95522 23.2494 10.3 23.2494H15.396H15.695H15.89C15.9639 23.2151 16.0336 23.1732 16.098 23.1243C16.1704 23.0784 16.2398 23.0283 16.306 22.9743L16.423 22.8118C16.485 22.7346 16.5373 22.6507 16.579 22.5618L18.685 16.8989L24.093 31.1749C24.1838 31.4165 24.3499 31.6254 24.5685 31.773C24.7872 31.9206 25.0478 31.9999 25.315 32C25.5822 31.9999 25.8428 31.9206 26.0615 31.773C26.2801 31.6254 26.4462 31.4165 26.537 31.1749L29.527 23.2494H33.7C34.0448 23.2494 34.3754 23.1177 34.6192 22.8832C34.863 22.6488 35 22.3308 35 21.9993C35 21.6677 34.863 21.3498 34.6192 21.1153C34.3754 20.8809 34.0448 20.7492 33.7 20.7492Z" fill="#00C0D0"/>
</svg>
