<svg width="800" height="300" viewBox="0 0 800 300" fill="none" xmlns="http://www.w3.org/2000/svg">
<g clip-path="url(#clip0_4_91)">
<path d="M726.387 182.609C726.334 183.879 726.254 184.619 726.254 184.619L672.308 184.567C673.207 191.075 680.589 199.092 691.172 199.118C698.659 199.118 704.586 197.16 709.957 193.112C710.327 192.848 712.232 191.525 713.978 193.641L721.942 202.716C721.942 202.716 711.756 214.913 691.119 214.887C667.942 214.887 655.56 197.16 655.587 176.815C655.587 156.681 670.615 140.806 690.378 140.806C709.004 140.806 727.789 153.109 726.387 182.582V182.609ZM710.036 169.724C708.449 161.258 701.834 155.675 691.675 155.596C682.706 155.516 674.663 160.728 672.361 169.698H710.036V169.724Z" fill="#002163"/>
<path d="M611.43 246.133C631.061 246.133 648.126 229.729 648.126 211.103C648.126 203.589 648.126 181.021 648.126 181.021C648.152 178.481 648.126 176.285 648.126 176.285C647.306 156.548 631.193 140.806 611.244 140.78C590.766 140.78 574.204 157.342 574.178 177.82C574.178 198.298 590.713 214.887 611.191 214.913C618.838 214.913 625.955 212.611 631.855 208.643V209.489C631.855 220.734 622.674 229.888 611.403 229.888C605.08 229.888 599.259 226.263 594.947 221.686C594.047 220.734 593.148 220.178 591.56 221.184C589.999 222.189 580.236 228.856 580.236 228.856C589.576 243.566 603.625 246.159 611.403 246.186L611.43 246.133ZM611.297 198.271C600 198.271 590.872 189.091 590.899 177.82C590.899 166.549 600.053 157.395 611.35 157.395C622.648 157.395 631.775 166.576 631.775 177.846C631.775 189.117 622.621 198.271 611.324 198.271H611.297Z" fill="#002163"/>
<path d="M367.307 145.463L367.255 212.717H350.745V204.939C345.136 210.865 337.252 214.014 327.674 213.987C306.27 213.987 291.322 198.854 291.348 177.211C291.348 155.596 306.323 140.489 327.754 140.515C337.252 140.515 345.11 143.611 350.666 149.484C350.666 149.484 353.523 142.288 360.27 142.288H364.106C366.699 142.288 367.334 143.214 367.334 145.436L367.307 145.463ZM329.421 155.834C317.726 155.834 308.202 165.438 308.175 177.238C308.175 189.064 317.7 198.668 329.368 198.695C341.115 198.695 350.639 189.117 350.666 177.291C350.666 165.491 341.141 155.86 329.394 155.86L329.421 155.834Z" fill="#002163"/>
<path d="M446.256 144.986L446.203 212.823H462.898C462.898 212.823 462.845 181.921 462.924 173.322C463.057 161.76 469.618 157.527 478.825 157.474C485.307 157.421 489.488 160.252 489.488 160.252L499.303 146.997C494.647 143.743 488.191 141.415 482.185 141.415C475.518 141.415 467.343 143.214 462.448 148.135C462.448 148.135 459.062 142.446 452.5 142.42H449.008C447.394 142.42 446.256 143.293 446.256 145.013V144.986Z" fill="#002163"/>
<path d="M175.015 144.642L174.963 212.611H191.895L191.922 171.206C191.922 161.628 199.118 156.681 206.129 156.681C214.358 156.681 220.363 163.03 220.337 171.232V212.664H237.984V171.232C238.01 163.03 244.043 156.707 252.244 156.707C260.446 156.707 266.452 163.057 266.452 171.259V212.691H283.464V165.385C283.517 151.759 270.976 140.674 255.525 140.674C245.101 140.674 235.709 145.674 230.84 153.638C226.581 145.674 218.3 140.647 209.093 140.647C202.267 140.647 195.758 143.505 191.102 148.426C191.022 147.711 188.879 142.208 181.736 142.208H177.423C175.65 142.208 174.963 142.817 174.963 144.669L175.015 144.642Z" fill="#002163"/>
<path d="M736.573 145.595L736.52 212.955H753.32L753.347 171.708C753.347 162.21 761.046 157.183 768.216 157.183C777.132 157.183 783.032 162.977 783.006 171.735V212.982H799.912V171.735C799.965 141.997 774.195 141.124 771.285 141.124C764.353 141.124 757.686 143.981 752.95 148.955C752.871 148.241 751.548 142.658 744.986 142.658H739.536C737.578 142.658 736.573 143.531 736.573 145.568V145.595Z" fill="#002163"/>
<path d="M530.708 140.7C510.23 140.7 493.615 157.263 493.615 177.741C493.615 198.219 510.177 214.807 530.655 214.834C551.133 214.834 567.722 198.271 567.748 177.793C567.748 157.342 551.186 140.727 530.735 140.7H530.708ZM530.735 198.192C519.437 198.192 510.31 189.011 510.31 177.741C510.31 166.47 519.464 157.315 530.761 157.315C542.032 157.315 551.186 166.496 551.16 177.767C551.16 189.038 542.005 198.192 530.708 198.192H530.735Z" fill="#002163"/>
<path d="M411.941 214.622C391.542 214.622 374.954 198.007 374.98 177.608C374.98 157.21 391.622 140.594 412.02 140.621C421.386 140.621 430.25 144.14 437.128 150.489C437.34 150.675 438.795 151.918 437.128 153.638C435.435 155.358 426.572 163.374 426.572 163.374L425.646 162.554C421.889 159.141 417.021 157.263 411.994 157.263C400.776 157.263 391.622 166.364 391.622 177.608C391.622 188.826 400.75 197.98 411.968 197.98C417.074 197.98 422.656 196.076 426.44 192.663C426.757 192.371 428.054 191.34 429.562 192.715L437.631 201.632L438.901 203.007C438.901 203.007 437.578 204.33 437.367 204.515C430.461 210.997 421.492 214.569 411.994 214.569L411.941 214.622Z" fill="#002163"/>
<path d="M175.068 66.699H179.143V85.9335H203.51V66.7255H207.584L207.558 110.327H203.484V89.6375H179.116V110.301H175.042L175.068 66.699Z" fill="#002163"/>
<path d="M239.466 102.337C239.466 102.893 239.466 103.528 239.518 104.295C239.545 105.036 239.571 105.777 239.598 106.597C239.598 107.364 239.677 108.105 239.677 108.74C239.73 109.428 239.73 109.957 239.73 110.327H236.053C236.026 109.269 236 108.237 235.973 107.258C235.973 106.253 235.92 105.618 235.814 105.353H235.629C234.915 106.914 233.671 108.264 231.952 109.375C230.232 110.512 228.221 111.068 225.919 111.068C223.697 111.068 221.898 110.724 220.469 110.01C219.067 109.322 217.956 108.422 217.162 107.258C216.342 106.12 215.813 104.824 215.522 103.342C215.204 101.887 215.072 100.353 215.072 98.8182V81.8591H218.776V98.633C218.776 99.7707 218.882 100.882 219.067 101.993C219.252 103.051 219.623 104.03 220.152 104.903C220.654 105.75 221.369 106.438 222.295 106.941C223.194 107.47 224.358 107.708 225.867 107.708C227.189 107.708 228.512 107.443 229.703 106.994C230.92 106.517 231.952 105.829 232.851 104.824C233.724 103.872 234.439 102.655 234.941 101.226C235.471 99.7707 235.709 98.051 235.709 96.0931V81.8591H239.439V102.284L239.466 102.337Z" fill="#002163"/>
<path d="M246.636 89.9286C246.636 89.3994 246.583 88.738 246.556 87.9707C246.556 87.2035 246.503 86.4362 246.477 85.6689C246.45 84.8752 246.424 84.1609 246.371 83.473C246.345 82.7851 246.318 82.2824 246.318 81.912H250.022C250.049 82.9703 250.075 84.0021 250.128 85.0075C250.128 85.96 250.181 86.5949 250.26 86.9124H250.445C251.213 85.3514 252.43 84.0021 254.149 82.8644C255.869 81.7532 257.88 81.1976 260.182 81.1976C262.06 81.1976 263.806 81.6474 265.341 82.6528C266.902 83.6052 268.013 85.1662 268.727 87.3357C269.653 85.2191 270.976 83.6582 272.775 82.6792C274.575 81.7003 276.427 81.2241 278.411 81.2241C280.607 81.2241 282.406 81.568 283.808 82.2559C285.21 82.9438 286.322 83.8698 287.089 84.981C287.883 86.1187 288.438 87.4151 288.782 88.8967C289.1 90.3519 289.232 91.9129 289.232 93.4474V110.38H285.528V93.6326C285.528 92.4949 285.422 91.3837 285.21 90.2725C285.025 89.1878 284.681 88.1824 284.152 87.3357C283.649 86.4626 282.909 85.8012 281.983 85.2721C281.083 84.7694 279.866 84.5048 278.384 84.5048C276.638 84.5048 275.236 84.8223 274.125 85.4573C273.014 86.0922 272.14 86.9124 271.479 87.8913C270.844 88.8703 270.421 89.955 270.13 91.0662C269.865 92.2303 269.733 93.3151 269.733 94.3469V110.354H266.029V93.2357C266.029 90.6165 265.553 88.4999 264.6 86.9124C263.621 85.2985 262.14 84.5048 260.129 84.5048C258.753 84.5048 257.51 84.7429 256.266 85.2191C255.049 85.6689 254.017 86.4097 253.118 87.3357C252.245 88.3147 251.53 89.5317 251.001 90.9869C250.498 92.442 250.207 94.1617 250.207 96.1196V110.327H246.53V89.9021L246.636 89.9286Z" fill="#002163"/>
<path d="M317.726 98.4743C317.726 99.8501 317.726 101.146 317.726 102.231C317.753 103.342 317.806 104.374 317.806 105.3C317.832 106.226 317.885 107.126 317.965 107.92C318.018 108.766 318.123 109.586 318.229 110.407H314.79C314.525 109.004 314.419 107.47 314.419 105.777H314.287C313.229 107.602 311.906 108.978 310.318 109.824C308.757 110.698 306.747 111.147 304.339 111.147C303.096 111.147 301.879 110.989 300.688 110.671C299.471 110.38 298.413 109.877 297.487 109.19C296.534 108.555 295.793 107.629 295.185 106.597C294.576 105.512 294.312 104.242 294.312 102.707C294.312 100.538 294.867 98.7918 295.979 97.5218C297.09 96.2519 298.439 95.2994 300.079 94.6644C301.693 94.0295 303.413 93.6326 305.265 93.4739C307.064 93.2887 308.705 93.1828 310.054 93.1828H314.366V91.4631C314.366 89.0026 313.626 87.2299 312.091 86.1452C310.583 85.1133 308.705 84.5577 306.403 84.5577C303.122 84.5577 300.212 85.616 297.725 87.7591L295.582 85.2192C296.931 83.9227 298.598 82.8909 300.635 82.2295C302.646 81.5945 304.577 81.2505 306.429 81.2505C309.869 81.2505 312.62 82.0443 314.657 83.6846C316.721 85.2985 317.753 87.9178 317.753 91.5425V98.5007L317.726 98.4743ZM310.345 96.1196C308.81 96.1196 307.302 96.2519 305.847 96.4371C304.366 96.6487 303.069 96.9927 301.879 97.4689C300.688 97.9451 299.788 98.633 299.074 99.4268C298.386 100.247 298.016 101.279 298.016 102.522C298.016 103.395 298.227 104.163 298.598 104.824C298.995 105.485 299.524 106.068 300.132 106.517C300.741 106.941 301.429 107.285 302.196 107.496C302.937 107.708 303.704 107.84 304.471 107.84C306.429 107.84 308.07 107.576 309.339 106.967C310.609 106.385 311.615 105.644 312.382 104.718C313.149 103.792 313.678 102.734 313.97 101.57C314.261 100.406 314.393 99.2151 314.393 98.0245V96.0931H310.345V96.1196Z" fill="#002163"/>
<path d="M324.552 90.0079C324.552 89.4788 324.552 88.8174 324.5 88.0501C324.473 87.2828 324.447 86.5156 324.42 85.7483C324.394 84.9546 324.367 84.2402 324.314 83.5523C324.314 82.8645 324.261 82.3618 324.261 81.9914H327.939C327.965 83.0497 328.018 84.0815 328.018 85.0869C328.018 86.0658 328.124 86.6743 328.204 86.9918H328.389C329.156 85.4308 330.347 84.0815 332.066 82.9438C333.786 81.8326 335.823 81.277 338.099 81.277C340.321 81.277 342.147 81.621 343.522 82.3088C344.925 82.9967 346.009 83.9227 346.83 85.034C347.623 86.1716 348.152 87.468 348.47 88.9496C348.787 90.4048 348.946 91.9658 348.946 93.5003V110.433H345.242V93.6855C345.242 92.5478 345.163 91.4366 344.925 90.3254C344.739 89.2407 344.395 88.2353 343.866 87.3887C343.337 86.5156 342.649 85.8541 341.697 85.325C340.771 84.8223 339.58 84.5577 338.099 84.5577C336.749 84.5577 335.479 84.7958 334.262 85.2721C333.045 85.7218 332.04 86.4626 331.14 87.3887C330.241 88.3676 329.553 89.5846 329.05 91.0398C328.521 92.4949 328.283 94.2147 328.283 96.1725V110.38H324.552V89.955V90.0079Z" fill="#002163"/>
<path d="M363.339 108.237L380.43 85.3779H364.238V82.0178H385.537V84.2667L368.525 107.152H386.251V110.486H363.339V108.237Z" fill="#002163"/>
<path d="M389.347 70.7734C389.347 69.9797 389.638 69.3183 390.14 68.8156C390.669 68.26 391.331 67.9954 392.125 67.9954C392.892 67.9954 393.527 68.2865 394.082 68.8421C394.612 69.3447 394.876 70.0062 394.876 70.7999C394.876 71.5672 394.585 72.2021 394.082 72.7577C393.527 73.2869 392.865 73.5515 392.125 73.5515C391.331 73.5515 390.669 73.3133 390.14 72.7577C389.611 72.2021 389.347 71.5672 389.347 70.7999V70.7734ZM390.246 82.0443H393.95V110.486H390.246V82.0443Z" fill="#002163"/>
<path d="M401.252 90.0609C401.252 89.5317 401.226 88.8703 401.199 88.103C401.146 87.3357 401.147 86.5685 401.094 85.8012C401.094 85.0075 401.041 84.2932 401.014 83.6053C400.961 82.9174 400.935 82.4147 400.935 82.0443H404.639C404.665 83.1026 404.718 84.1344 404.718 85.1398C404.718 86.1187 404.824 86.7272 404.877 87.0447H405.036C405.803 85.4837 407.046 84.1344 408.74 82.9967C410.459 81.8855 412.47 81.3299 414.772 81.3299C416.994 81.3299 418.794 81.6739 420.169 82.3618C421.598 83.0497 422.683 83.9757 423.476 85.0869C424.27 86.2245 424.826 87.5209 425.143 89.0026C425.434 90.4577 425.593 92.0187 425.567 93.5532V110.486H421.889V93.7384C421.889 92.6008 421.81 91.4896 421.598 90.3783C421.386 89.2936 421.042 88.2882 420.513 87.4416C420.011 86.5685 419.27 85.9071 418.37 85.3779C417.471 84.8752 416.254 84.6106 414.772 84.6106C413.423 84.6106 412.153 84.8488 410.936 85.325C409.719 85.7748 408.66 86.5156 407.761 87.4416C406.888 88.4205 406.226 89.6375 405.671 91.0927C405.142 92.5478 404.903 94.2676 404.903 96.2254V110.433H401.199V90.0079L401.252 90.0609Z" fill="#002163"/>
<path d="M459.697 108.687C459.697 112.206 459.167 115.063 458.136 117.233C457.104 119.402 455.807 121.069 454.326 122.286C452.765 123.45 451.098 124.27 449.352 124.694C447.606 125.09 445.992 125.276 444.537 125.276C443.108 125.276 441.706 125.143 440.33 124.879C438.954 124.614 437.658 124.244 436.414 123.741C435.197 123.212 434.086 122.577 433.081 121.836C432.049 121.095 431.202 120.275 430.461 119.323L433.372 116.598C434.668 118.45 436.308 119.799 438.266 120.672C440.25 121.545 442.367 121.968 444.563 121.995C446.441 121.995 448.029 121.73 449.325 121.254C450.622 120.751 451.706 120.116 452.553 119.323C453.4 118.503 454.035 117.629 454.511 116.651C454.987 115.698 455.331 114.746 455.569 113.767C455.807 112.814 455.94 111.915 455.993 111.042C455.993 110.168 456.019 109.507 456.019 108.951V105.009H455.887C454.828 106.729 453.373 108.052 451.548 109.084C449.696 110.036 447.579 110.539 445.119 110.539C443.028 110.539 441.071 110.168 439.192 109.401C437.34 108.66 435.753 107.602 434.377 106.253C432.975 104.903 431.916 103.369 431.096 101.596C430.329 99.8236 429.906 97.9451 429.906 95.9344C429.906 93.9236 430.329 92.0452 431.096 90.2725C431.916 88.4999 432.975 86.9653 434.377 85.6425C435.753 84.3196 437.367 83.2878 439.192 82.5205C441.071 81.7532 443.028 81.3564 445.119 81.3564C447.579 81.3564 449.696 81.8326 451.548 82.838C453.373 83.8169 454.802 85.1927 455.887 86.9124H456.019V82.0972H459.723V108.687H459.697ZM456.125 95.9608C456.125 94.3999 455.834 92.9183 455.225 91.5689C454.617 90.1667 453.85 89.0026 452.818 87.9707C451.812 86.9653 450.622 86.1716 449.246 85.5896C447.844 84.981 446.415 84.69 444.88 84.69C443.319 84.69 441.838 84.981 440.462 85.5896C439.086 86.1716 437.896 86.9653 436.89 87.9707C435.885 89.0026 435.091 90.1667 434.509 91.5689C433.901 92.9183 433.61 94.3999 433.61 95.9608C433.61 97.5218 433.927 98.977 434.509 100.353C435.118 101.729 435.885 102.919 436.89 103.925C437.896 104.93 439.086 105.75 440.462 106.332C441.838 106.914 443.293 107.232 444.88 107.232C446.415 107.232 447.87 106.941 449.272 106.332C450.675 105.75 451.865 104.93 452.871 103.925C453.876 102.919 454.67 101.729 455.278 100.353C455.887 98.977 456.178 97.5218 456.178 95.9608H456.125Z" fill="#002163"/>
<path d="M515.548 107.734C513.035 109.163 510.389 110.195 507.637 110.777C504.939 111.359 502.161 111.677 499.33 111.677C495.996 111.677 492.98 111.094 490.202 109.983C487.45 108.846 485.069 107.258 483.085 105.247C481.101 103.21 479.593 100.803 478.481 97.9981C477.344 95.1671 476.815 92.1245 476.815 88.7909C476.815 85.4837 477.37 82.3882 478.481 79.6366C479.593 76.8322 481.127 74.451 483.085 72.3873C485.069 70.3501 487.45 68.7891 490.202 67.625C492.98 66.4873 496.023 65.9053 499.33 65.9053C505.812 65.9053 511.024 67.916 515.045 71.9376L512.082 75.0331C511.447 74.2658 510.627 73.525 509.648 72.8106C508.696 72.1757 507.637 71.5672 506.526 71.0909C505.389 70.6147 504.224 70.2443 502.981 70.0062C501.764 69.7416 500.547 69.5828 499.356 69.5828C496.552 69.5828 493.985 70.0855 491.684 71.0909C489.435 72.0698 487.477 73.3927 485.863 75.1653C484.276 76.8851 483.032 78.8958 482.159 81.2505C481.286 83.5788 480.863 86.1187 480.836 88.8173C480.836 91.516 481.259 94.0559 482.132 96.3842C483.006 98.7389 484.223 100.75 485.81 102.496C487.424 104.189 489.355 105.565 491.604 106.544C493.88 107.549 496.472 108.052 499.277 108.052C501.605 108.052 503.801 107.867 505.865 107.496C507.928 107.126 509.78 106.438 511.474 105.459V90.7752H501.023V87.0976H515.522V107.787L515.548 107.734Z" fill="#002163"/>
<path d="M548.355 105.274C546.927 107.443 545.154 108.978 543.037 109.957C540.921 110.856 538.592 111.359 536.026 111.359C533.883 111.359 531.872 110.989 530.126 110.221C528.353 109.481 526.872 108.449 525.575 107.099C524.305 105.777 523.353 104.189 522.639 102.364C521.977 100.538 521.633 98.5272 521.633 96.2783C521.633 94.1617 521.977 92.2039 522.665 90.4048C523.379 88.6057 524.358 87.0183 525.628 85.6954C526.898 84.3725 528.406 83.3142 530.126 82.5734C531.872 81.8062 533.777 81.4622 535.841 81.4622C538.037 81.4622 539.968 81.8326 541.635 82.5999C543.275 83.3671 544.678 84.3461 545.789 85.616C546.927 86.886 547.8 88.3147 548.355 89.9021C548.937 91.516 549.228 93.1299 549.228 94.7703V97.3631H525.337C525.337 98.1304 525.47 99.1093 525.787 100.326C526.105 101.543 526.66 102.734 527.48 103.872C528.274 105.036 529.412 106.015 530.761 106.835C532.163 107.655 533.936 108.078 536.105 108.078C537.984 108.078 539.809 107.629 541.582 106.729C543.328 105.829 544.704 104.586 545.657 103.051L548.355 105.353V105.274ZM545.524 94.003C545.524 92.733 545.286 91.516 544.757 90.4313C544.254 89.3201 543.566 88.3411 542.693 87.4945C541.794 86.6743 540.762 86.0129 539.545 85.5367C538.328 85.0075 537.058 84.7694 535.709 84.7694C533.698 84.7694 532.005 85.1662 530.708 86.0129C529.359 86.8066 528.301 87.7591 527.533 88.8174C526.74 89.9021 526.184 90.9075 525.866 91.9129C525.523 92.9183 525.364 93.6061 525.364 93.9765H545.551L545.524 94.003Z" fill="#002163"/>
<path d="M553.62 90.1667C553.62 89.6375 553.594 88.9761 553.541 88.2088C553.488 87.4416 553.462 86.6743 553.435 85.9071C553.435 85.1133 553.382 84.399 553.356 83.7111C553.303 83.0232 553.303 82.5205 553.303 82.1501H557.007C557.007 83.2084 557.086 84.2402 557.086 85.2456C557.086 86.2245 557.139 86.8331 557.245 87.1505H557.43C558.171 85.5896 559.388 84.2402 561.161 83.1026C562.854 81.9914 564.891 81.4358 567.166 81.4358C569.389 81.4358 571.188 81.7797 572.59 82.4676C573.992 83.1555 575.077 84.0815 575.871 85.1927C576.665 86.3304 577.22 87.6268 577.538 89.1084C577.829 90.5635 577.988 92.1245 577.988 93.6591V110.592H574.283V93.8443C574.283 92.7066 574.204 91.5954 573.992 90.4842C573.781 89.3994 573.41 88.394 572.908 87.5474C572.405 86.6743 571.691 86.0129 570.765 85.4837C569.839 84.981 568.622 84.7165 567.14 84.7165C565.791 84.7165 564.494 84.9546 563.277 85.4308C562.087 85.8806 561.028 86.6214 560.129 87.5474C559.256 88.5263 558.594 89.7434 558.039 91.1985C557.536 92.6537 557.271 94.3734 557.271 96.3313V110.539H553.567V90.1138L553.62 90.1667Z" fill="#002163"/>
<path d="M582.3 96.4106C582.3 94.2147 582.67 92.2304 583.411 90.3783C584.152 88.5528 585.184 86.9918 586.507 85.6689C587.803 84.3196 589.391 83.2878 591.216 82.5734C593.095 81.8326 595.079 81.4622 597.275 81.4622C599.444 81.4622 601.455 81.8326 603.281 82.5734C605.106 83.3142 606.667 84.3461 608.017 85.6954C609.339 87.0183 610.398 88.6057 611.112 90.4048C611.853 92.2304 612.223 94.2411 612.223 96.4371C612.223 98.6066 611.853 100.591 611.112 102.416C610.371 104.242 609.313 105.829 607.99 107.152C606.667 108.475 605.08 109.533 603.254 110.248C601.429 110.989 599.418 111.359 597.248 111.359C595.052 111.359 593.068 110.989 591.19 110.221C589.364 109.481 587.777 108.449 586.48 107.099C585.184 105.777 584.152 104.189 583.385 102.364C582.644 100.538 582.274 98.5537 582.274 96.3842L582.3 96.4106ZM586.004 96.4106C586.004 97.9981 586.242 99.5326 586.771 100.908C587.3 102.337 587.988 103.581 588.994 104.586C589.973 105.644 591.163 106.464 592.565 107.099C593.968 107.708 595.502 108.025 597.248 108.025C598.968 108.025 600.529 107.708 601.905 107.099C603.307 106.464 604.524 105.644 605.503 104.586C606.482 103.581 607.249 102.337 607.752 100.908C608.255 99.5061 608.519 97.9716 608.519 96.4106C608.519 94.7967 608.255 93.2887 607.752 91.8864C607.249 90.4842 606.482 89.2671 605.503 88.1824C604.524 87.1506 603.334 86.2775 601.905 85.6954C600.529 85.0604 598.968 84.7694 597.248 84.7694C595.502 84.7694 593.968 85.0604 592.565 85.6954C591.163 86.2775 589.973 87.1506 588.994 88.1824C587.988 89.2407 587.274 90.4577 586.771 91.86C586.242 93.2887 586.004 94.7967 585.978 96.3842L586.004 96.4106Z" fill="#002163"/>
<path d="M617.488 90.2196C617.488 89.6904 617.462 89.029 617.435 88.2617C617.409 87.4945 617.383 86.7272 617.356 85.9599C617.356 85.1662 617.33 84.4519 617.277 83.764C617.224 83.0761 617.224 82.5734 617.224 82.203H620.901C620.901 83.2613 620.954 84.2931 620.981 85.2985C620.981 86.2774 621.06 86.8859 621.139 87.2034H621.325C622.065 85.6425 623.283 84.2931 625.029 83.1555C626.748 82.0443 628.759 81.4886 631.061 81.4886C632.966 81.4886 634.659 81.9384 636.22 82.9438C637.781 83.8963 638.892 85.4573 639.607 87.6268C640.506 85.5102 641.856 83.9492 643.655 82.9703C645.427 81.9913 647.306 81.5151 649.29 81.5151C651.513 81.5151 653.312 81.8591 654.714 82.5469C656.09 83.2348 657.227 84.1608 658.021 85.2721C658.815 86.4097 659.344 87.7061 659.661 89.1877C660.005 90.6429 660.138 92.2039 660.138 93.7384V110.671H656.434V93.9236C656.434 92.7859 656.354 91.6747 656.143 90.5635C655.957 89.4788 655.561 88.4734 655.084 87.6268C654.555 86.7537 653.841 86.0922 652.915 85.5631C651.989 85.0604 650.798 84.7958 649.317 84.7958C647.597 84.7958 646.168 85.1133 645.083 85.7483C643.972 86.3833 643.099 87.2034 642.464 88.1824C641.803 89.1613 641.379 90.246 641.115 91.3572C640.85 92.5214 640.718 93.6061 640.718 94.638V110.645H636.987V93.5267C636.987 90.9075 636.538 88.7909 635.559 87.2034C634.58 85.5895 633.125 84.7958 631.114 84.7958C629.765 84.7958 628.495 85.0339 627.278 85.5102C626.061 85.9599 625.029 86.7007 624.129 87.6268C623.23 88.6057 622.542 89.8227 622.013 91.2779C621.483 92.733 621.245 94.4528 621.245 96.4106V110.618H617.568V90.1931L617.488 90.2196Z" fill="#002163"/>
<path d="M666.249 71.0115C666.249 70.2178 666.514 69.5564 667.043 69.0537C667.546 68.4981 668.234 68.2335 669.001 68.2335C669.795 68.2335 670.403 68.5246 670.985 69.0802C671.514 69.5828 671.752 70.2443 671.752 71.038C671.752 71.8053 671.514 72.4402 670.985 72.9958C670.403 73.525 669.768 73.7896 669.001 73.7896C668.234 73.7896 667.546 73.5514 667.043 72.9958C666.487 72.4402 666.249 71.8053 666.249 71.038V71.0115ZM667.175 82.2559H670.853V110.698H667.175V82.2559Z" fill="#002163"/>
<path d="M700.882 106.544C699.453 108.237 697.892 109.454 696.146 110.301C694.373 111.094 692.442 111.491 690.405 111.491C688.235 111.491 686.225 111.121 684.373 110.354C682.521 109.613 680.96 108.581 679.637 107.258C678.314 105.935 677.282 104.348 676.541 102.522C675.827 100.697 675.456 98.7124 675.456 96.5429C675.456 94.3469 675.827 92.3626 676.568 90.5106C677.308 88.6851 678.34 87.1241 679.663 85.8012C680.986 84.4519 682.547 83.42 684.399 82.7057C686.251 81.9649 688.262 81.5945 690.431 81.5945C692.521 81.5945 694.426 82.0178 696.252 82.8644C698.025 83.7375 699.638 84.9546 701.041 86.5156L698.077 88.7115C696.993 87.5474 695.829 86.5949 694.559 85.907C693.289 85.2721 691.913 84.9017 690.431 84.9017C688.712 84.9017 687.151 85.1927 685.748 85.8277C684.346 86.4097 683.155 87.2828 682.177 88.3147C681.198 89.3729 680.457 90.59 679.928 91.9922C679.399 93.4209 679.16 94.929 679.16 96.5164C679.16 98.1039 679.399 99.6384 679.928 101.014C680.43 102.443 681.171 103.686 682.15 104.692C683.129 105.75 684.346 106.57 685.722 107.205C687.124 107.814 688.685 108.131 690.405 108.131C691.966 108.131 693.394 107.787 694.664 107.046C695.961 106.332 697.099 105.38 698.051 104.216L700.882 106.544Z" fill="#002163"/>
<path d="M706.65 103.475C707.417 104.983 708.581 106.147 710.089 106.941C711.597 107.761 713.237 108.158 714.904 108.158C715.645 108.158 716.439 108.025 717.232 107.814C718 107.576 718.714 107.205 719.323 106.755C719.958 106.306 720.46 105.777 720.831 105.142C721.228 104.533 721.413 103.766 721.413 102.972C721.413 101.649 721.016 100.67 720.143 99.9824C719.296 99.3474 718.264 98.8182 717.047 98.4743C715.804 98.1039 714.481 97.7864 712.999 97.5218C711.518 97.2308 710.168 96.8339 708.925 96.2519C707.681 95.6963 706.65 94.9555 705.829 93.9765C704.983 92.9447 704.559 91.5954 704.559 89.7963C704.559 88.394 704.85 87.177 705.406 86.1716C706.015 85.1398 706.755 84.2667 707.655 83.6052C708.581 82.9438 709.613 82.4147 710.777 82.1236C711.941 81.7797 713.105 81.6474 714.296 81.6474C716.65 81.6474 718.661 82.0707 720.354 82.9174C722.048 83.7904 723.371 85.1398 724.323 86.9918L720.989 88.9496C720.275 87.6532 719.402 86.6478 718.37 85.96C717.285 85.325 715.963 84.9546 714.269 84.9546C713.608 84.9546 712.92 85.0339 712.206 85.2456C711.518 85.4573 710.883 85.7483 710.274 86.1187C709.719 86.4626 709.216 86.9653 708.846 87.5474C708.449 88.1295 708.263 88.7644 708.263 89.5052C708.263 90.7752 708.687 91.7277 709.533 92.3362C710.354 92.9182 711.385 93.4209 712.602 93.7913C713.872 94.1088 715.222 94.4263 716.703 94.6909C718.132 94.929 719.534 95.3523 720.751 95.8815C721.968 96.4371 723.027 97.2308 723.873 98.2891C724.693 99.3474 725.117 100.829 725.117 102.734C725.117 104.216 724.852 105.485 724.27 106.597C723.715 107.681 722.974 108.581 721.995 109.348C721.016 110.089 719.931 110.618 718.714 110.989C717.471 111.359 716.174 111.544 714.825 111.544C712.391 111.544 710.116 111.042 708.105 110.142C706.068 109.163 704.506 107.708 703.395 105.75L706.65 103.554V103.475Z" fill="#002163"/>
<path d="M354.105 70.747C354.105 69.9533 354.37 69.2918 354.899 68.7891C355.428 68.2335 356.063 67.969 356.857 67.969C357.624 67.969 358.286 68.26 358.815 68.8156C359.344 69.3183 359.608 69.9797 359.608 70.7734C359.608 71.5407 359.317 72.1757 358.815 72.7313C358.259 73.2604 357.624 73.525 356.83 73.525C356.037 73.525 355.402 73.2869 354.873 72.7313C354.343 72.1757 354.079 71.5407 354.079 70.7734L354.105 70.747ZM355.005 82.0178H358.709V110.459H355.005V82.0178Z" fill="#002163"/>
<path d="M77.8904 45.6654C78.7371 51.9623 80.8801 60.1111 84.2931 64.1856C89.5052 70.403 93.9765 57.7829 94.1088 51.0098C94.2411 43.5488 90.3519 36.8551 85.0339 35.9027C78.7106 34.765 77.229 40.6385 77.8904 45.6919V45.6654Z" fill="#E50050"/>
<path d="M145.965 215.204C115.592 188.826 77.0967 184.725 53.2586 180.757C55.4281 170.28 58.8147 159.115 63.7358 147.315C69.768 132.869 72.5461 123.979 73.3133 116.651C73.4456 115.354 72.1492 113.555 70.7999 116.307C68.5775 120.804 58.8411 140.674 52.3062 152.156C41.0883 150.913 28.4152 151.998 19.8695 154.855C20.6367 153.929 22.6739 152.13 23.7587 151.23C33.8919 142.711 63.4712 126.44 99.2944 76.0649C100.353 74.5568 100.75 72.9694 100.062 71.2232L98.7918 68.1806C98.1039 66.9371 96.4635 66.3021 95.1406 68.3658C92.4155 72.599 86.4626 83.2613 74.8743 95.855C74.6626 92.151 73.181 88.0766 72.599 85.8277C69.8209 74.8479 63.3653 52.3591 76.8851 25.7166C83.0761 13.5462 83.9227 10.5829 75.0595 1.87848C72.2021 -0.952459 68.551 -0.661428 66.4873 3.43946C59.6349 16.9327 51.1685 33.1775 60.2434 68.3394C63.577 81.2506 71.9375 98.7918 69.1066 102.125C58.5766 114.56 44.9246 124.614 27.4627 136.123C11.4296 146.627 2.14303 149.934 0.317469 158.559C-1.1906 165.782 2.14303 176.471 23.3089 182.556C28.9443 184.17 34.6856 185.334 37.5694 185.942C27.304 226.501 31.7753 255.71 48.073 283.358C55.0048 295.132 65.0322 300.238 75.9326 300C80.3774 299.894 82.1501 296.058 79.3985 292.248C77.229 289.285 64.2384 274.866 56.3277 250.392C56.0102 249.202 56.0631 248.038 56.3806 246.821C56.3806 246.821 56.3806 246.794 56.3806 246.768C66.2757 215.522 87.8913 202.61 91.9658 200.415C93.4209 199.78 94.8496 199.938 96.3841 200.494C104.771 203.484 113.396 208.775 119.508 213.484C125.249 217.903 125.064 224.173 117.391 232.005C100.115 249.625 92.1774 262.616 88.1824 270.235C85.6954 274.971 84.4783 278.94 85.2456 283.358C86.1187 288.438 89.4523 288.57 92.9182 284.126C104.612 269.018 115.566 255.763 142.579 237.323C154.67 229.068 153.717 221.924 145.965 215.204ZM39.977 178.164C31.0874 176.735 24.473 174.407 19.9488 169.618C17.7529 167.29 16.721 164.591 17.0385 161.734C24.473 159.326 34.2623 158.771 48.1259 160.993C45.7712 165.967 42.4111 172.608 39.9506 178.164H39.977ZM77.4407 195.255C76.6469 195.996 75.9326 196.71 75.4299 197.213C60.9048 210.045 54.6344 226.29 52.2533 234.465C49.7398 220.998 49.1048 205.336 51.9887 187.583C57.7828 188.376 65.5349 189.832 73.816 192.054C74.8478 192.345 75.8797 192.61 76.8851 192.901C76.9909 192.901 77.0703 192.954 77.1761 193.006C78.3402 193.43 78.4196 194.303 77.4407 195.255Z" fill="url(#paint0_linear_4_91)"/>
</g>
<defs>
<linearGradient id="paint0_linear_4_91" x1="76.0027" y1="13.0037" x2="75.7615" y2="289.404" gradientUnits="userSpaceOnUse">
<stop stop-color="#8FC31F"/>
<stop offset="0.3" stop-color="#38B572"/>
<stop offset="0.51" stop-color="#00ADA9"/>
<stop offset="0.61" stop-color="#008C98"/>
<stop offset="0.88" stop-color="#003F72"/>
<stop offset="1" stop-color="#002163"/>
</linearGradient>
<clipPath id="clip0_4_91">
<rect width="799.965" height="300" fill="white"/>
</clipPath>
</defs>
</svg>
