<svg width="16" height="18" viewBox="0 0 16 18" fill="none" xmlns="http://www.w3.org/2000/svg">
<path d="M1.67477 6.88079C0.322118 9.22807 1.18203 12.7902 2.67784 14.95C3.42449 16.0299 4.18043 16.9991 5.21581 16.9991C5.23533 16.9991 5.25489 16.9988 5.27493 16.998C5.76139 16.9786 6.11291 16.8288 6.4528 16.6841C6.83438 16.5214 7.22903 16.3533 7.84805 16.3533C8.43696 16.3533 8.81277 16.516 9.17621 16.6733C9.5344 16.8282 9.90334 16.9885 10.4485 16.9783C11.6148 16.9566 12.3308 15.9107 12.9626 14.988C13.6219 14.0246 13.9526 13.0892 14.0641 12.7317L14.0686 12.7175C14.0899 12.654 14.0599 12.5846 13.999 12.5566C13.9973 12.5559 13.9911 12.5533 13.9894 12.5526C13.784 12.4686 11.9825 11.6694 11.9635 9.49104C11.9459 7.72129 13.315 6.7841 13.5896 6.61424L13.6024 6.60627C13.6321 6.58712 13.6529 6.55675 13.6599 6.52202C13.6669 6.48734 13.6596 6.45125 13.6396 6.42208C12.6946 5.03916 11.2462 4.83074 10.6631 4.80566C10.5785 4.79722 10.4911 4.79297 10.4034 4.79297C9.71853 4.79297 9.06243 5.05164 8.53532 5.25949C8.17146 5.40296 7.85718 5.52687 7.64042 5.52687C7.39685 5.52687 7.08078 5.40144 6.71478 5.25623C6.22533 5.06198 5.67058 4.84186 5.0833 4.84186C5.06929 4.84186 5.0555 4.84202 5.04191 4.84228C3.6764 4.86237 2.38612 5.64359 1.67477 6.88079Z" fill="black"/>
<path d="M10.6644 1.0001C9.83751 1.03378 8.84557 1.54279 8.25268 2.23724C7.74881 2.82095 7.25659 3.79417 7.38627 4.77516C7.3944 4.83654 7.44434 4.88391 7.50608 4.88868C7.5619 4.89303 7.61887 4.89524 7.67563 4.89529C8.48418 4.89529 9.35641 4.44797 9.95208 3.72771C10.579 2.96716 10.896 1.9911 10.8001 1.11682C10.7926 1.04831 10.7323 0.997425 10.6644 1.0001Z" fill="black"/>
</svg>
