<svg width="134" height="50" viewBox="0 0 134 50" fill="none" xmlns="http://www.w3.org/2000/svg">
<g id="LOGO_white" clip-path="url(#clip0_123_328)">
<g id="Group">
<g id="Group_2">
<path id="Vector" d="M121.675 30.4348C121.667 30.6464 121.653 30.7699 121.653 30.7699L112.617 30.7611C112.768 31.8458 114.004 33.1819 115.777 33.1863C117.031 33.1863 118.024 32.86 118.923 32.1854C118.985 32.1413 119.304 31.9208 119.597 32.2736L120.931 33.786C120.931 33.786 119.225 35.8189 115.768 35.8144C111.886 35.8144 109.811 32.86 109.816 29.4691C109.816 26.1134 112.333 23.4677 115.644 23.4677C118.764 23.4677 121.91 25.5181 121.675 30.4304V30.4348ZM118.937 28.2873C118.671 26.8763 117.563 25.9459 115.861 25.9326C114.359 25.9194 113.011 26.7881 112.626 28.2829H118.937V28.2873Z" fill="white"/>
<path id="Vector_2" d="M102.419 41.0221C105.708 41.0221 108.566 38.2882 108.566 35.1839C108.566 33.9316 108.566 30.1702 108.566 30.1702C108.571 29.7469 108.566 29.3809 108.566 29.3809C108.429 26.0914 105.73 23.4677 102.388 23.4633C98.9579 23.4633 96.1836 26.2237 96.1792 29.6367C96.1792 33.0497 98.9491 35.8144 102.379 35.8189C103.66 35.8189 104.852 35.4352 105.841 34.7738V34.9149C105.841 36.789 104.303 38.3147 102.415 38.3147C101.356 38.3147 100.381 37.7106 99.6582 36.9477C99.5075 36.789 99.3568 36.6964 99.0909 36.8639C98.8294 37.0315 97.1941 38.1427 97.1941 38.1427C98.7585 40.5944 101.112 41.0265 102.415 41.031L102.419 41.0221ZM102.397 33.0452C100.505 33.0452 98.9757 31.5151 98.9801 29.6367C98.9801 27.7582 100.514 26.2325 102.406 26.2325C104.298 26.2325 105.827 27.7626 105.827 29.6411C105.827 31.5195 104.294 33.0452 102.401 33.0452H102.397Z" fill="white"/>
<path id="Vector_3" d="M61.5269 24.2438L61.5181 35.4529H58.7526V34.1564C57.8131 35.1442 56.4924 35.6689 54.8881 35.6645C51.3028 35.6645 48.7988 33.1423 48.8032 29.5352C48.8032 25.9326 51.3116 23.4148 54.9014 23.4192C56.4924 23.4192 57.8086 23.9351 58.7393 24.914C58.7393 24.914 59.218 23.7146 60.3481 23.7146H60.9907C61.425 23.7146 61.5314 23.8689 61.5314 24.2394L61.5269 24.2438ZM55.1806 25.9723C53.2217 25.9723 51.6263 27.573 51.6219 29.5396C51.6219 31.5107 53.2173 33.1114 55.1717 33.1158C57.1394 33.1158 58.7349 31.5195 58.7393 29.5485C58.7393 27.5818 57.1439 25.9767 55.1762 25.9767L55.1806 25.9723Z" fill="white"/>
<path id="Vector_4" d="M74.7515 24.1644L74.7427 35.4705H77.5391C77.5391 35.4705 77.5303 30.3201 77.5436 28.887C77.5657 26.96 78.6648 26.2545 80.2071 26.2457C81.2929 26.2369 81.9931 26.7087 81.9931 26.7087L83.6373 24.4995C82.8573 23.9571 81.776 23.5691 80.7699 23.5691C79.6531 23.5691 78.2837 23.8689 77.4638 24.6891C77.4638 24.6891 76.8965 23.7411 75.7974 23.7367H75.2125C74.9421 23.7367 74.7515 23.8822 74.7515 24.1688V24.1644Z" fill="white"/>
<path id="Vector_5" d="M29.3165 24.1071L29.3076 35.4352H32.144L32.1484 28.5343C32.1484 26.938 33.3539 26.1134 34.5283 26.1134C35.9066 26.1134 36.9126 27.1717 36.9082 28.5387V35.444H39.8642V28.5387C39.8686 27.1717 40.8791 26.1178 42.2529 26.1178C43.6268 26.1178 44.6328 27.1761 44.6328 28.5431V35.4485H47.4824V27.5642C47.4913 25.2932 45.3906 23.4456 42.8025 23.4456C41.0563 23.4456 39.483 24.279 38.6676 25.6063C37.9541 24.279 36.5669 23.4412 35.0246 23.4412C33.8812 23.4412 32.791 23.9175 32.011 24.7376C31.9977 24.6186 31.6387 23.7014 30.4422 23.7014H29.7198C29.4228 23.7014 29.3076 23.8028 29.3076 24.1115L29.3165 24.1071Z" fill="white"/>
<path id="Vector_6" d="M123.381 24.2658L123.373 35.4925H126.187L126.191 28.618C126.191 27.035 127.481 26.1972 128.682 26.1972C130.175 26.1972 131.164 27.1629 131.159 28.6225V35.497H133.991V28.6225C134 23.6661 129.683 23.5206 129.196 23.5206C128.035 23.5206 126.918 23.9968 126.125 24.8258C126.111 24.7068 125.89 23.7763 124.791 23.7763H123.878C123.55 23.7763 123.381 23.9219 123.381 24.2614V24.2658Z" fill="white"/>
<path id="Vector_7" d="M88.8975 23.45C85.4672 23.45 82.6841 26.2104 82.6841 29.6234C82.6841 33.0364 85.4584 35.8012 88.8886 35.8056C92.3188 35.8056 95.0976 33.0452 95.102 29.6322C95.102 26.2237 92.3277 23.4544 88.9019 23.45H88.8975ZM88.9019 33.032C87.0095 33.032 85.4805 31.5019 85.4805 29.6234C85.4805 27.7449 87.014 26.2192 88.9063 26.2192C90.7943 26.2192 92.3277 27.7494 92.3233 29.6278C92.3233 31.5063 90.7898 33.032 88.8975 33.032H88.9019Z" fill="white"/>
<path id="Vector_8" d="M69.0032 35.7704C65.5863 35.7704 62.8076 33.0011 62.812 29.6014C62.812 26.2016 65.5996 23.4324 69.0165 23.4368C70.5854 23.4368 72.0701 24.0233 73.2223 25.0816C73.2578 25.1124 73.5015 25.3197 73.2223 25.6063C72.9387 25.8929 71.454 27.229 71.454 27.229L71.2989 27.0923C70.6696 26.5235 69.8542 26.2104 69.0121 26.2104C67.133 26.2104 65.5996 27.7273 65.5996 29.6014C65.5996 31.471 67.1286 32.9967 69.0077 32.9967C69.863 32.9967 70.7981 32.6792 71.4319 32.1104C71.4851 32.0619 71.7022 31.8899 71.9548 32.1192L73.3065 33.6053L73.5193 33.8346C73.5193 33.8346 73.2977 34.055 73.2622 34.0859C72.1055 35.1662 70.6031 35.7615 69.0121 35.7615L69.0032 35.7704Z" fill="white"/>
</g>
<g id="Group_3">
<path id="Vector_9" d="M29.3252 11.1165H30.0077V14.3222H34.0894V11.1209H34.7719L34.7675 18.3879H34.085V14.9396H30.0033V18.3835H29.3208L29.3252 11.1165Z" fill="white"/>
<path id="Vector_10" d="M40.112 17.0562C40.112 17.1488 40.112 17.2546 40.1209 17.3825C40.1253 17.506 40.1297 17.6294 40.1342 17.7661C40.1342 17.894 40.1475 18.0175 40.1475 18.1233C40.1563 18.2379 40.1563 18.3261 40.1563 18.3879H39.5403C39.5359 18.2115 39.5314 18.0395 39.527 17.8764C39.527 17.7088 39.5181 17.603 39.5004 17.5589H39.4694C39.3497 17.819 39.1414 18.0439 38.8534 18.2291C38.5653 18.4187 38.2285 18.5113 37.8429 18.5113C37.4706 18.5113 37.1693 18.454 36.93 18.3349C36.6951 18.2203 36.5089 18.0704 36.376 17.8764C36.2386 17.6867 36.15 17.4707 36.1012 17.2237C36.048 16.9812 36.0259 16.7255 36.0259 16.4697V13.6432H36.6463V16.4388C36.6463 16.6284 36.6641 16.8137 36.6951 16.9989C36.7261 17.1752 36.7881 17.3384 36.8768 17.4839C36.961 17.625 37.0806 17.7397 37.2358 17.8234C37.3864 17.9116 37.5814 17.9513 37.8341 17.9513C38.0556 17.9513 38.2772 17.9072 38.4767 17.8323C38.6805 17.7529 38.8534 17.6382 39.0041 17.4707C39.1503 17.3119 39.27 17.1091 39.3542 16.871C39.4428 16.6284 39.4827 16.3418 39.4827 16.0155V13.6432H40.1076V17.0474L40.112 17.0562Z" fill="white"/>
<path id="Vector_11" d="M41.3134 14.9881C41.3134 14.8999 41.3046 14.7897 41.3001 14.6618C41.3001 14.5339 41.2913 14.406 41.2868 14.2782C41.2824 14.1459 41.278 14.0268 41.2691 13.9122C41.2647 13.7975 41.2603 13.7137 41.2603 13.652H41.8807C41.8851 13.8284 41.8896 14.0004 41.8984 14.1679C41.8984 14.3267 41.9073 14.4325 41.9206 14.4854H41.9516C42.0801 14.2252 42.284 14.0004 42.5721 13.8107C42.8601 13.6255 43.197 13.5329 43.5825 13.5329C43.8972 13.5329 44.1897 13.6079 44.4467 13.7755C44.7082 13.9342 44.8943 14.1944 45.014 14.556C45.1691 14.2032 45.3907 13.943 45.6921 13.7799C45.9934 13.6167 46.3036 13.5373 46.636 13.5373C47.0039 13.5373 47.3052 13.5947 47.5401 13.7093C47.775 13.824 47.9611 13.9783 48.0897 14.1635C48.2226 14.3531 48.3157 14.5692 48.3733 14.8161C48.4265 15.0586 48.4486 15.3188 48.4486 15.5746V18.3967H47.8282V15.6054C47.8282 15.4158 47.8105 15.2306 47.775 15.0454C47.744 14.8646 47.6864 14.6971 47.5977 14.556C47.5135 14.4104 47.3894 14.3002 47.2343 14.212C47.0836 14.1282 46.8798 14.0841 46.6316 14.0841C46.3391 14.0841 46.1042 14.137 45.9181 14.2429C45.7319 14.3487 45.5857 14.4854 45.4749 14.6486C45.3685 14.8117 45.2976 14.9925 45.2489 15.1777C45.2046 15.3717 45.1824 15.5525 45.1824 15.7245V18.3923H44.5619V15.5393C44.5619 15.1027 44.4822 14.75 44.3226 14.4854C44.1587 14.2164 43.9105 14.0841 43.5737 14.0841C43.3432 14.0841 43.1349 14.1238 42.9266 14.2032C42.7227 14.2782 42.5499 14.4016 42.3992 14.556C42.253 14.7191 42.1333 14.922 42.0447 15.1645C41.9605 15.407 41.9117 15.6936 41.9117 16.0199V18.3879H41.2957V14.9837L41.3134 14.9881Z" fill="white"/>
<path id="Vector_12" d="M53.2215 16.4124C53.2215 16.6417 53.2215 16.8577 53.2215 17.0385C53.2259 17.2237 53.2348 17.3957 53.2348 17.55C53.2392 17.7044 53.2481 17.8543 53.2613 17.9866C53.2702 18.1277 53.2879 18.2644 53.3057 18.4011H52.7295C52.6852 18.1674 52.6675 17.9116 52.6675 17.6294H52.6453C52.4681 17.9337 52.2465 18.163 51.9806 18.3041C51.7191 18.4496 51.3823 18.5246 50.979 18.5246C50.7707 18.5246 50.5668 18.4981 50.3674 18.4452C50.1635 18.3967 49.9862 18.3129 49.8311 18.1983C49.6716 18.0924 49.5475 17.9381 49.4456 17.7661C49.3436 17.5853 49.2993 17.3737 49.2993 17.1179C49.2993 16.7563 49.3924 16.4653 49.5785 16.2536C49.7647 16.042 49.9907 15.8832 50.2654 15.7774C50.5358 15.6716 50.8239 15.6054 51.1341 15.579C51.4354 15.5481 51.7102 15.5305 51.9362 15.5305H52.6586V15.2438C52.6586 14.8338 52.5345 14.5383 52.2775 14.3575C52.0249 14.1856 51.7102 14.093 51.3247 14.093C50.7751 14.093 50.2876 14.2693 49.871 14.6265L49.512 14.2032C49.7381 13.9871 50.0173 13.8151 50.3585 13.7049C50.6953 13.5991 51.0189 13.5418 51.3291 13.5418C51.9052 13.5418 52.3661 13.674 52.7074 13.9474C53.0531 14.2164 53.2259 14.653 53.2259 15.2571V16.4168L53.2215 16.4124ZM51.985 16.0199C51.7279 16.0199 51.4753 16.042 51.2316 16.0728C50.9834 16.1081 50.7662 16.1654 50.5668 16.2448C50.3674 16.3242 50.2167 16.4388 50.097 16.5711C49.9818 16.7078 49.9198 16.8798 49.9198 17.087C49.9198 17.2326 49.9552 17.3604 50.0173 17.4707C50.0837 17.5809 50.1724 17.6779 50.2743 17.7529C50.3762 17.8234 50.4915 17.8808 50.62 17.916C50.7441 17.9513 50.8726 17.9734 51.0011 17.9734C51.3291 17.9734 51.6039 17.9293 51.8166 17.8278C52.0293 17.7308 52.1977 17.6074 52.3262 17.453C52.4548 17.2987 52.5434 17.1223 52.5921 16.9283C52.6409 16.7343 52.6631 16.5358 52.6631 16.3374V16.0155H51.985V16.0199Z" fill="white"/>
<path id="Vector_13" d="M54.3652 15.0013C54.3652 14.9131 54.3652 14.8029 54.3563 14.675C54.3519 14.5471 54.3474 14.4193 54.343 14.2914C54.3386 14.1591 54.3341 14.04 54.3253 13.9254C54.3253 13.8107 54.3164 13.727 54.3164 13.6652H54.9324C54.9369 13.8416 54.9457 14.0136 54.9457 14.1811C54.9457 14.3443 54.9635 14.4457 54.9767 14.4986H55.0078C55.1363 14.2385 55.3357 14.0136 55.6238 13.824C55.9119 13.6388 56.2531 13.5462 56.6342 13.5462C57.0065 13.5462 57.3123 13.6035 57.5428 13.7181C57.7776 13.8328 57.9593 13.9871 58.0967 14.1723C58.2297 14.3619 58.3183 14.578 58.3715 14.8249C58.4247 15.0675 58.4513 15.3276 58.4513 15.5834V18.4055H57.8308V15.6142C57.8308 15.4246 57.8175 15.2394 57.7776 15.0542C57.7466 14.8734 57.689 14.7059 57.6004 14.5648C57.5117 14.4193 57.3965 14.309 57.237 14.2208C57.0819 14.137 56.8824 14.093 56.6342 14.093C56.4082 14.093 56.1955 14.1326 55.9916 14.212C55.7878 14.287 55.6194 14.4104 55.4687 14.5648C55.318 14.7279 55.2028 14.9308 55.1186 15.1733C55.0299 15.4158 54.99 15.7024 54.99 16.0287V18.3967H54.3652V14.9925V15.0013Z" fill="white"/>
<path id="Vector_14" d="M60.8618 18.0395L63.7248 14.2297H61.0125V13.6696H64.5801V14.0444L61.7304 17.8587H64.6998V18.4143H60.8618V18.0395Z" fill="white"/>
<path id="Vector_15" d="M65.2183 11.7956C65.2183 11.6633 65.267 11.553 65.3512 11.4693C65.4399 11.3767 65.5506 11.3326 65.6836 11.3326C65.8121 11.3326 65.9185 11.3811 66.0116 11.4737C66.1002 11.5575 66.1445 11.6677 66.1445 11.8C66.1445 11.9279 66.0958 12.0337 66.0116 12.1263C65.9185 12.2145 65.8077 12.2586 65.6836 12.2586C65.5506 12.2586 65.4399 12.2189 65.3512 12.1263C65.2626 12.0337 65.2183 11.9279 65.2183 11.8V11.7956ZM65.3689 13.674H65.9894V18.4143H65.3689V13.674Z" fill="white"/>
<path id="Vector_16" d="M67.2129 15.0101C67.2129 14.9219 67.2084 14.8117 67.204 14.6838C67.1951 14.556 67.1951 14.4281 67.1863 14.3002C67.1863 14.1679 67.1774 14.0489 67.173 13.9342C67.1641 13.8196 67.1597 13.7358 67.1597 13.674H67.7801C67.7846 13.8504 67.7934 14.0224 67.7934 14.19C67.7934 14.3531 67.8111 14.4545 67.82 14.5075H67.8466C67.9751 14.2473 68.1834 14.0224 68.4671 13.8328C68.7551 13.6476 69.0919 13.555 69.4775 13.555C69.8498 13.555 70.1511 13.6123 70.3816 13.727C70.6209 13.8416 70.8026 13.9959 70.9356 14.1811C71.0685 14.3708 71.1616 14.5868 71.2148 14.8338C71.2635 15.0763 71.2901 15.3364 71.2857 15.5922V18.4143H70.6697V15.6231C70.6697 15.4335 70.6564 15.2483 70.6209 15.0631C70.5855 14.8823 70.5278 14.7147 70.4392 14.5736C70.355 14.4281 70.2309 14.3178 70.0802 14.2296C69.9296 14.1459 69.7257 14.1018 69.4775 14.1018C69.2515 14.1018 69.0388 14.1415 68.8349 14.2208C68.631 14.2958 68.4538 14.4193 68.3031 14.5736C68.1568 14.7367 68.046 14.9396 67.953 15.1821C67.8643 15.4246 67.8244 15.7113 67.8244 16.0376V18.4055H67.204V15.0013L67.2129 15.0101Z" fill="white"/>
<path id="Vector_17" d="M77.0024 18.1145C77.0024 18.7009 76.9138 19.1772 76.7409 19.5388C76.5681 19.9003 76.3509 20.1781 76.1028 20.381C75.8413 20.575 75.5621 20.7117 75.2696 20.7823C74.9771 20.8484 74.7067 20.8793 74.463 20.8793C74.2237 20.8793 73.9888 20.8572 73.7583 20.8131C73.5279 20.769 73.3107 20.7073 73.1024 20.6235C72.8986 20.5353 72.7124 20.4295 72.544 20.306C72.3712 20.1826 72.2294 20.0459 72.1053 19.8871L72.5928 19.4329C72.8099 19.7416 73.0847 19.9665 73.4127 20.112C73.745 20.2575 74.0996 20.3281 74.4674 20.3325C74.7821 20.3325 75.048 20.2884 75.2651 20.209C75.4823 20.1252 75.664 20.0194 75.8058 19.8871C75.9476 19.7504 76.054 19.6049 76.1338 19.4417C76.2136 19.283 76.2712 19.1243 76.3111 18.9611C76.3509 18.8024 76.3731 18.6524 76.382 18.5069C76.382 18.3614 76.3864 18.2512 76.3864 18.1586V17.5015H76.3642C76.187 17.7882 75.9432 18.0086 75.6374 18.1806C75.3272 18.3394 74.9727 18.4231 74.5605 18.4231C74.2104 18.4231 73.8824 18.3614 73.5678 18.2335C73.2575 18.1101 72.9916 17.9337 72.7612 17.7088C72.5263 17.4839 72.349 17.2281 72.2116 16.9327C72.0831 16.6373 72.0122 16.3242 72.0122 15.9891C72.0122 15.6539 72.0831 15.3409 72.2116 15.0454C72.349 14.75 72.5263 14.4942 72.7612 14.2737C72.9916 14.0533 73.262 13.8813 73.5678 13.7534C73.8824 13.6255 74.2104 13.5594 74.5605 13.5594C74.9727 13.5594 75.3272 13.6388 75.6374 13.8063C75.9432 13.9695 76.1825 14.1988 76.3642 14.4854H76.3864V13.6829H77.0068V18.1145H77.0024ZM76.4041 15.9935C76.4041 15.7333 76.3554 15.4864 76.2534 15.2615C76.1515 15.0278 76.023 14.8338 75.8501 14.6618C75.6817 14.4942 75.4823 14.3619 75.2519 14.2649C75.017 14.1635 74.7776 14.115 74.5206 14.115C74.2591 14.115 74.0109 14.1635 73.7805 14.2649C73.55 14.3619 73.3506 14.4942 73.1822 14.6618C73.0138 14.8338 72.8808 15.0278 72.7833 15.2615C72.6814 15.4864 72.6327 15.7333 72.6327 15.9935C72.6327 16.2536 72.6858 16.4962 72.7833 16.7255C72.8853 16.9548 73.0138 17.1532 73.1822 17.3207C73.3506 17.4883 73.55 17.625 73.7805 17.722C74.0109 17.819 74.2547 17.8719 74.5206 17.8719C74.7776 17.8719 75.0214 17.8234 75.2563 17.722C75.4912 17.625 75.6906 17.4883 75.859 17.3207C76.0274 17.1532 76.1604 16.9548 76.2623 16.7255C76.3642 16.4962 76.413 16.2536 76.413 15.9935H76.4041Z" fill="white"/>
<path id="Vector_18" d="M86.3583 17.9557C85.9373 18.1938 85.4941 18.3658 85.0332 18.4628C84.5811 18.5598 84.1158 18.6128 83.6416 18.6128C83.0832 18.6128 82.5779 18.5157 82.1126 18.3305C81.6517 18.1409 81.2528 17.8764 80.9205 17.5412C80.5881 17.2017 80.3355 16.8004 80.1493 16.333C79.9588 15.8612 79.8701 15.3541 79.8701 14.7985C79.8701 14.2473 79.9632 13.7314 80.1493 13.2728C80.3355 12.8054 80.5925 12.4085 80.9205 12.0646C81.2528 11.725 81.6517 11.4649 82.1126 11.2708C82.5779 11.0812 83.0876 10.9842 83.6416 10.9842C84.7274 10.9842 85.6004 11.3193 86.2741 11.9896L85.7777 12.5055C85.6713 12.3776 85.534 12.2542 85.37 12.1351C85.2104 12.0293 85.0332 11.9279 84.847 11.8485C84.6565 11.7691 84.4615 11.7074 84.2532 11.6677C84.0493 11.6236 83.8454 11.5971 83.646 11.5971C83.1762 11.5971 82.7464 11.6809 82.3608 11.8485C81.9841 12.0116 81.6561 12.2321 81.3858 12.5276C81.1199 12.8142 80.9116 13.1493 80.7653 13.5418C80.6191 13.9298 80.5482 14.3531 80.5438 14.8029C80.5438 15.2527 80.6147 15.676 80.7609 16.064C80.9072 16.4565 81.111 16.7916 81.3769 17.0826C81.6473 17.3648 81.9708 17.5941 82.3475 17.7573C82.7286 17.9249 83.1629 18.0086 83.6327 18.0086C84.0227 18.0086 84.3906 17.9778 84.7362 17.916C85.0819 17.8543 85.3921 17.7397 85.6758 17.5765V15.1292H83.9252V14.5163H86.3538V17.9645L86.3583 17.9557Z" fill="white"/>
<path id="Vector_19" d="M91.8536 17.5456C91.6142 17.9072 91.3173 18.163 90.9628 18.3261C90.6082 18.4761 90.2182 18.5598 89.7883 18.5598C89.4294 18.5598 89.0925 18.4981 88.8 18.3702C88.5031 18.2468 88.2549 18.0748 88.0378 17.8499C87.825 17.6294 87.6655 17.3648 87.5458 17.0606C87.4351 16.7563 87.3774 16.4212 87.3774 16.0464C87.3774 15.6936 87.4351 15.3673 87.5503 15.0675C87.6699 14.7676 87.8339 14.503 88.0466 14.2826C88.2594 14.0621 88.512 13.8857 88.8 13.7622C89.0925 13.6344 89.4116 13.577 89.7573 13.577C90.1252 13.577 90.4487 13.6388 90.7279 13.7666C91.0027 13.8945 91.2375 14.0577 91.4237 14.2693C91.6142 14.481 91.7605 14.7191 91.8536 14.9837C91.9511 15.2527 91.9998 15.5216 91.9998 15.795V16.2272H87.9979C87.9979 16.3551 88.02 16.5182 88.0732 16.721C88.1264 16.9239 88.2195 17.1223 88.3569 17.3119C88.4898 17.506 88.6804 17.6691 88.9064 17.8058C89.1413 17.9425 89.4382 18.0131 89.8016 18.0131C90.1163 18.0131 90.4221 17.9381 90.719 17.7882C91.0115 17.6382 91.242 17.431 91.4015 17.1752L91.8536 17.5589V17.5456ZM91.3794 15.6672C91.3794 15.4555 91.3395 15.2527 91.2508 15.0719C91.1666 14.8867 91.0514 14.7235 90.9052 14.5824C90.7545 14.4457 90.5816 14.3355 90.3778 14.2561C90.1739 14.1679 89.9612 14.1282 89.7352 14.1282C89.3983 14.1282 89.1147 14.1944 88.8975 14.3355C88.6715 14.4678 88.4943 14.6265 88.3657 14.8029C88.2328 14.9837 88.1397 15.1512 88.0865 15.3188C88.0289 15.4864 88.0023 15.601 88.0023 15.6628H91.3838L91.3794 15.6672Z" fill="white"/>
<path id="Vector_20" d="M92.7353 15.0278C92.7353 14.9396 92.7309 14.8293 92.722 14.7015C92.7131 14.5736 92.7087 14.4457 92.7043 14.3178C92.7043 14.1856 92.6954 14.0665 92.691 13.9518C92.6821 13.8372 92.6821 13.7534 92.6821 13.6917H93.3026C93.3026 13.8681 93.3159 14.04 93.3159 14.2076C93.3159 14.3708 93.3247 14.4722 93.3425 14.5251H93.3735C93.4976 14.2649 93.7014 14.04 93.9984 13.8504C94.282 13.6652 94.6233 13.5726 95.0044 13.5726C95.3767 13.5726 95.678 13.6299 95.9129 13.7446C96.1478 13.8592 96.3295 14.0136 96.4625 14.1988C96.5954 14.3884 96.6885 14.6045 96.7417 14.8514C96.7904 15.0939 96.817 15.3541 96.817 15.6098V18.432H96.1965V15.6407C96.1965 15.4511 96.1833 15.2659 96.1478 15.0807C96.1123 14.8999 96.0503 14.7323 95.9661 14.5912C95.8819 14.4457 95.7622 14.3355 95.6071 14.2473C95.452 14.1635 95.2481 14.1194 95 14.1194C94.7739 14.1194 94.5568 14.1591 94.3529 14.2385C94.1535 14.3134 93.9762 14.4369 93.8255 14.5912C93.6793 14.7544 93.5685 14.9572 93.4754 15.1998C93.3912 15.4423 93.3469 15.7289 93.3469 16.0552V18.4231H92.7264V15.019L92.7353 15.0278Z" fill="white"/>
<path id="Vector_21" d="M97.5396 16.0684C97.5396 15.7024 97.6016 15.3717 97.7257 15.0631C97.8498 14.7588 98.0227 14.4986 98.2442 14.2782C98.4614 14.0533 98.7273 13.8813 99.0331 13.7622C99.3478 13.6388 99.6801 13.577 100.048 13.577C100.411 13.577 100.748 13.6388 101.054 13.7622C101.36 13.8857 101.621 14.0577 101.847 14.2826C102.069 14.503 102.246 14.7676 102.366 15.0675C102.49 15.3717 102.552 15.7069 102.552 16.0728C102.552 16.4344 102.49 16.7651 102.366 17.0694C102.242 17.3737 102.064 17.6382 101.843 17.8587C101.621 18.0792 101.355 18.2556 101.05 18.3746C100.744 18.4981 100.407 18.5598 100.044 18.5598C99.6757 18.5598 99.3433 18.4981 99.0287 18.3702C98.7229 18.2468 98.457 18.0748 98.2398 17.8499C98.0227 17.6294 97.8498 17.3648 97.7213 17.0606C97.5972 16.7563 97.5352 16.4256 97.5352 16.064L97.5396 16.0684ZM98.16 16.0684C98.16 16.333 98.1999 16.5888 98.2886 16.8181C98.3772 17.0562 98.4924 17.2634 98.6608 17.431C98.8248 17.6074 99.0242 17.7441 99.2591 17.8499C99.494 17.9513 99.7511 18.0042 100.044 18.0042C100.332 18.0042 100.593 17.9513 100.824 17.8499C101.058 17.7441 101.262 17.6074 101.426 17.431C101.59 17.2634 101.719 17.0562 101.803 16.8181C101.887 16.5844 101.932 16.3286 101.932 16.0684C101.932 15.7995 101.887 15.5481 101.803 15.3144C101.719 15.0807 101.59 14.8779 101.426 14.6971C101.262 14.5251 101.063 14.3796 100.824 14.2826C100.593 14.1767 100.332 14.1282 100.044 14.1282C99.7511 14.1282 99.494 14.1767 99.2591 14.2826C99.0242 14.3796 98.8248 14.5251 98.6608 14.6971C98.4924 14.8734 98.3728 15.0763 98.2886 15.31C98.1999 15.5481 98.16 15.7995 98.1556 16.064L98.16 16.0684Z" fill="white"/>
<path id="Vector_22" d="M103.434 15.0366C103.434 14.9484 103.43 14.8382 103.425 14.7103C103.421 14.5824 103.416 14.4545 103.412 14.3267C103.412 14.1944 103.407 14.0753 103.399 13.9607C103.39 13.846 103.39 13.7622 103.39 13.7005H104.006C104.006 13.8769 104.015 14.0489 104.019 14.2164C104.019 14.3796 104.032 14.481 104.046 14.5339H104.077C104.201 14.2737 104.405 14.0489 104.697 13.8592C104.985 13.674 105.322 13.5814 105.707 13.5814C106.027 13.5814 106.31 13.6564 106.572 13.824C106.833 13.9827 107.019 14.2429 107.139 14.6045C107.29 14.2517 107.516 13.9915 107.817 13.8284C108.114 13.6652 108.429 13.5859 108.761 13.5859C109.133 13.5859 109.435 13.6432 109.67 13.7578C109.9 13.8725 110.091 14.0268 110.223 14.212C110.356 14.4016 110.445 14.6177 110.498 14.8646C110.556 15.1072 110.578 15.3673 110.578 15.6231V18.4452H109.958V15.6539C109.958 15.4643 109.944 15.2791 109.909 15.0939C109.878 14.9131 109.811 14.7456 109.732 14.6045C109.643 14.4589 109.523 14.3487 109.368 14.2605C109.213 14.1767 109.014 14.1326 108.765 14.1326C108.477 14.1326 108.238 14.1856 108.056 14.2914C107.87 14.3972 107.724 14.5339 107.618 14.6971C107.507 14.8602 107.436 15.041 107.392 15.2262C107.347 15.4202 107.325 15.601 107.325 15.773V18.4408H106.7V15.5878C106.7 15.1512 106.625 14.7985 106.461 14.5339C106.297 14.2649 106.053 14.1326 105.716 14.1326C105.49 14.1326 105.278 14.1723 105.074 14.2517C104.87 14.3267 104.697 14.4501 104.546 14.6045C104.396 14.7676 104.28 14.9705 104.192 15.213C104.103 15.4555 104.063 15.7421 104.063 16.0684V18.4364H103.447V15.0322L103.434 15.0366Z" fill="white"/>
<path id="Vector_23" d="M111.602 11.8353C111.602 11.703 111.646 11.5927 111.735 11.509C111.819 11.4164 111.934 11.3723 112.062 11.3723C112.195 11.3723 112.297 11.4208 112.395 11.5134C112.483 11.5971 112.523 11.7074 112.523 11.8397C112.523 11.9675 112.483 12.0734 112.395 12.166C112.297 12.2542 112.191 12.2983 112.062 12.2983C111.934 12.2983 111.819 12.2586 111.735 12.166C111.641 12.0734 111.602 11.9675 111.602 11.8397V11.8353ZM111.757 13.7093H112.373V18.4496H111.757V13.7093Z" fill="white"/>
<path id="Vector_24" d="M117.403 17.7573C117.164 18.0395 116.902 18.2423 116.61 18.3835C116.313 18.5157 115.989 18.5819 115.648 18.5819C115.285 18.5819 114.948 18.5202 114.638 18.3923C114.327 18.2688 114.066 18.0968 113.844 17.8764C113.623 17.6559 113.45 17.3913 113.326 17.087C113.206 16.7828 113.144 16.4521 113.144 16.0905C113.144 15.7245 113.206 15.3938 113.33 15.0851C113.454 14.7808 113.627 14.5207 113.849 14.3002C114.07 14.0753 114.332 13.9033 114.642 13.7843C114.952 13.6608 115.289 13.5991 115.652 13.5991C116.003 13.5991 116.322 13.6696 116.627 13.8107C116.924 13.9563 117.195 14.1591 117.43 14.4193L116.933 14.7853C116.752 14.5912 116.557 14.4325 116.344 14.3178C116.131 14.212 115.901 14.1503 115.652 14.1503C115.364 14.1503 115.103 14.1988 114.868 14.3046C114.633 14.4016 114.434 14.5471 114.27 14.7191C114.106 14.8955 113.982 15.0983 113.893 15.332C113.804 15.5702 113.764 15.8215 113.764 16.0861C113.764 16.3506 113.804 16.6064 113.893 16.8357C113.977 17.0738 114.101 17.2811 114.265 17.4486C114.429 17.625 114.633 17.7617 114.864 17.8675C115.098 17.969 115.36 18.0219 115.648 18.0219C115.909 18.0219 116.149 17.9645 116.362 17.8411C116.579 17.722 116.769 17.5633 116.929 17.3693L117.403 17.7573Z" fill="white"/>
<path id="Vector_25" d="M118.369 17.2458C118.497 17.4971 118.692 17.6912 118.945 17.8234C119.198 17.9601 119.472 18.0263 119.752 18.0263C119.876 18.0263 120.009 18.0042 120.142 17.969C120.27 17.9293 120.39 17.8675 120.492 17.7926C120.598 17.7176 120.682 17.6294 120.744 17.5236C120.811 17.4222 120.842 17.2943 120.842 17.162C120.842 16.9415 120.775 16.7784 120.629 16.6637C120.487 16.5579 120.314 16.4697 120.111 16.4124C119.902 16.3506 119.681 16.2977 119.432 16.2536C119.184 16.2051 118.958 16.139 118.75 16.042C118.542 15.9494 118.369 15.8259 118.231 15.6628C118.09 15.4908 118.019 15.2659 118.019 14.966C118.019 14.7323 118.067 14.5295 118.161 14.3619C118.262 14.19 118.387 14.0444 118.537 13.9342C118.692 13.824 118.865 13.7358 119.06 13.6873C119.255 13.63 119.45 13.6079 119.65 13.6079C120.044 13.6079 120.381 13.6785 120.665 13.8196C120.948 13.9651 121.17 14.19 121.329 14.4986L120.771 14.8249C120.651 14.6089 120.505 14.4413 120.332 14.3267C120.15 14.2208 119.929 14.1591 119.645 14.1591C119.534 14.1591 119.419 14.1723 119.3 14.2076C119.184 14.2429 119.078 14.2914 118.976 14.3531C118.883 14.4104 118.799 14.4942 118.737 14.5912C118.67 14.6882 118.639 14.7941 118.639 14.9175C118.639 15.1292 118.71 15.2879 118.852 15.3894C118.989 15.4864 119.162 15.5702 119.366 15.6319C119.579 15.6848 119.805 15.7377 120.053 15.7818C120.292 15.8215 120.527 15.8921 120.731 15.9802C120.935 16.0728 121.112 16.2051 121.254 16.3815C121.391 16.5579 121.462 16.8048 121.462 17.1223C121.462 17.3693 121.418 17.5809 121.32 17.7661C121.227 17.9469 121.103 18.0968 120.939 18.2247C120.775 18.3482 120.594 18.4364 120.39 18.4981C120.181 18.5598 119.964 18.5907 119.738 18.5907C119.331 18.5907 118.949 18.5069 118.613 18.357C118.271 18.1938 118.01 17.9513 117.824 17.625L118.369 17.259V17.2458Z" fill="white"/>
<path id="Vector_26" d="M59.3155 11.7912C59.3155 11.6589 59.3598 11.5486 59.4484 11.4649C59.5371 11.3723 59.6434 11.3282 59.7764 11.3282C59.9049 11.3282 60.0157 11.3767 60.1043 11.4693C60.193 11.553 60.2373 11.6633 60.2373 11.7956C60.2373 11.9234 60.1885 12.0293 60.1043 12.1219C60.0113 12.2101 59.9049 12.2542 59.7719 12.2542C59.639 12.2542 59.5326 12.2145 59.444 12.1219C59.3554 12.0293 59.311 11.9234 59.311 11.7956L59.3155 11.7912ZM59.4661 13.6696H60.0866V18.4099H59.4661V13.6696Z" fill="white"/>
</g>
</g>
<g id="Group_4">
<path id="Vector_27" d="M13.0471 7.6109C13.189 8.66038 13.5479 10.0185 14.1196 10.6976C14.9927 11.7338 15.7417 9.63048 15.7638 8.50163C15.786 7.25814 15.1345 6.14252 14.2437 5.98377C13.1845 5.79416 12.9363 6.77309 13.0471 7.61531V7.6109Z" fill="#E50050"/>
<path id="Vector_28" d="M24.4502 35.8677C19.3625 31.4713 12.9142 30.7878 8.92116 30.1264C9.28457 28.3802 9.85184 26.5194 10.6762 24.5527C11.6866 22.1451 12.1519 20.6635 12.2805 19.442C12.3026 19.226 12.0855 18.9261 11.8594 19.3847C11.4872 20.1343 9.85627 23.4459 8.76162 25.3597C6.88253 25.1524 4.7597 25.3332 3.32823 25.8094C3.45675 25.6551 3.798 25.3553 3.9797 25.2053C5.67708 23.7855 10.6318 21.0736 16.6325 12.6778C16.8098 12.4264 16.8762 12.1619 16.761 11.8708L16.5483 11.3637C16.4331 11.1565 16.1583 11.0506 15.9367 11.3946C15.4802 12.1001 14.4831 13.8772 12.5419 15.9761C12.5065 15.3588 12.2583 14.6797 12.1608 14.3049C11.6955 12.4749 10.6141 8.72681 12.8788 4.28638C13.9158 2.25799 14.0576 1.76412 12.573 0.31337C12.0943 -0.158453 11.4827 -0.109947 11.1371 0.573534C9.98923 2.82241 8.57105 5.52988 10.0912 11.3902C10.6496 13.5421 12.05 16.4656 11.5758 17.0212C9.81196 19.0937 7.52514 20.7693 4.60015 22.6875C1.91448 24.4381 0.358919 24.9893 0.0531248 26.4268C-0.199488 27.6306 0.358919 29.4121 3.90436 30.4263C4.84834 30.6952 5.81004 30.8893 6.2931 30.9907C4.57356 37.7505 5.32254 42.6187 8.05253 47.2267C9.21366 49.1889 10.8933 50.04 12.7192 50.0003C13.4638 49.9827 13.7607 49.3433 13.2998 48.7083C12.9364 48.2144 10.7604 45.8112 9.43525 41.7324C9.38207 41.5339 9.39093 41.3399 9.44411 41.1371C9.44411 41.1371 9.44411 41.1327 9.44411 41.1283C11.1016 35.9206 14.7224 33.7687 15.4049 33.4027C15.6486 33.2969 15.888 33.3233 16.145 33.4159C17.5499 33.9142 18.9946 34.7961 20.0184 35.581C20.9801 36.3174 20.9491 37.3625 19.6639 38.6677C16.7699 41.6045 15.4403 43.7696 14.7711 45.0395C14.3546 45.8288 14.1507 46.4903 14.2792 47.2267C14.4255 48.0733 14.9839 48.0954 15.5644 47.3546C17.5233 44.8367 19.3581 42.6275 23.8829 39.554C25.9083 38.1783 25.7487 36.9877 24.4502 35.8677ZM6.6964 29.6943C5.20731 29.4562 4.09936 29.0681 3.34152 28.27C2.97368 27.8819 2.80084 27.4322 2.85402 26.9559C4.09936 26.5547 5.73913 26.4621 8.06139 26.8325C7.66696 27.6615 7.10412 28.7683 6.69197 29.6943H6.6964ZM12.9718 32.5428C12.8389 32.6663 12.7192 32.7854 12.635 32.8692C10.202 35.0078 9.15162 37.7153 8.75275 39.0778C8.33173 36.8333 8.22537 34.2229 8.70844 31.2641C9.679 31.3964 10.9775 31.6389 12.3647 32.0093C12.5375 32.0578 12.7104 32.1019 12.8788 32.1504C12.8965 32.1504 12.9098 32.1592 12.9275 32.168C13.1225 32.2386 13.1358 32.3841 12.9718 32.5428Z" fill="url(#paint0_linear_123_328)"/>
</g>
</g>
<defs>
<linearGradient id="paint0_linear_123_328" x1="12.731" y1="2.16757" x2="12.691" y2="48.2342" gradientUnits="userSpaceOnUse">
<stop stop-color="#8FC31F"/>
<stop offset="0.3" stop-color="#38B572"/>
<stop offset="0.51" stop-color="#00ADA9"/>
<stop offset="0.61" stop-color="#008C98"/>
<stop offset="0.88" stop-color="#003F72"/>
<stop offset="1" stop-color="#002163"/>
</linearGradient>
<clipPath id="clip0_123_328">
<rect width="134" height="50" fill="white"/>
</clipPath>
</defs>
</svg>
