<svg width="134" height="50" viewBox="0 0 134 50" fill="none" xmlns="http://www.w3.org/2000/svg">
<g clip-path="url(#clip0_466_140)">
<path d="M121.674 30.4348C121.665 30.6464 121.652 30.7699 121.652 30.7699L112.615 30.7611C112.766 31.8458 114.003 33.1819 115.775 33.1863C117.029 33.1863 118.022 32.86 118.922 32.1853C118.984 32.1413 119.303 31.9208 119.595 32.2735L120.929 33.786C120.929 33.786 119.223 35.8188 115.766 35.8144C111.884 35.8144 109.81 32.86 109.814 29.4691C109.814 26.1134 112.332 23.4677 115.642 23.4677C118.762 23.4677 121.909 25.5181 121.674 30.4303V30.4348ZM118.935 28.2873C118.669 26.8762 117.561 25.9458 115.859 25.9326C114.357 25.9194 113.01 26.788 112.624 28.2829H118.935V28.2873Z" fill="#002163"/>
<path d="M102.418 41.0221C105.706 41.0221 108.565 38.2882 108.565 35.1839C108.565 33.9316 108.565 30.1702 108.565 30.1702C108.569 29.7469 108.565 29.3809 108.565 29.3809C108.427 26.0914 105.728 23.4677 102.387 23.4633C98.9565 23.4633 96.1822 26.2236 96.1777 29.6366C96.1777 33.0496 98.9476 35.8144 102.378 35.8188C103.659 35.8188 104.851 35.4352 105.839 34.7738V34.9149C105.839 36.7889 104.301 38.3147 102.413 38.3147C101.354 38.3147 100.379 37.7105 99.6567 36.9477C99.506 36.7889 99.3553 36.6963 99.0894 36.8639C98.8279 37.0315 97.1926 38.1427 97.1926 38.1427C98.757 40.5944 101.11 41.0265 102.413 41.0309L102.418 41.0221ZM102.396 33.0452C100.503 33.0452 98.9742 31.5151 98.9786 29.6366C98.9786 27.7582 100.512 26.2325 102.404 26.2325C104.297 26.2325 105.826 27.7626 105.826 29.6411C105.826 31.5195 104.292 33.0452 102.4 33.0452H102.396Z" fill="#002163"/>
<path d="M61.5245 24.2438L61.5156 35.4529H58.7502V34.1565C57.8106 35.1442 56.49 35.669 54.8857 35.6645C51.3003 35.6645 48.7964 33.1423 48.8008 29.5353C48.8008 25.9326 51.3092 23.4148 54.8989 23.4192C56.49 23.4192 57.8062 23.9351 58.7369 24.914C58.7369 24.914 59.2155 23.7146 60.3456 23.7146H60.9882C61.4226 23.7146 61.5289 23.869 61.5289 24.2394L61.5245 24.2438ZM55.1782 25.9723C53.2193 25.9723 51.6238 27.573 51.6194 29.5397C51.6194 31.5107 53.2149 33.1114 55.1693 33.1158C57.137 33.1158 58.7325 31.5196 58.7369 29.5485C58.7369 27.5818 57.1414 25.9767 55.1737 25.9767L55.1782 25.9723Z" fill="#002163"/>
<path d="M74.7491 24.1644L74.7402 35.4705H77.5367C77.5367 35.4705 77.5278 30.3201 77.5411 28.887C77.5633 26.96 78.6624 26.2545 80.2046 26.2457C81.2904 26.2369 81.9907 26.7087 81.9907 26.7087L83.6349 24.4995C82.8549 23.9571 81.7735 23.5691 80.7675 23.5691C79.6507 23.5691 78.2812 23.8689 77.4614 24.6891C77.4614 24.6891 76.8941 23.7411 75.795 23.7367H75.21C74.9397 23.7367 74.7491 23.8822 74.7491 24.1688V24.1644Z" fill="#002163"/>
<path d="M29.3155 24.1071L29.3066 35.4353H32.143L32.1474 28.5343C32.1474 26.9381 33.3529 26.1135 34.5273 26.1135C35.9056 26.1135 36.9116 27.1718 36.9072 28.5387V35.4441H39.8632V28.5387C39.8676 27.1718 40.8781 26.1179 42.2519 26.1179C43.6258 26.1179 44.6318 27.1762 44.6318 28.5431V35.4485H47.4815V27.5642C47.4903 25.2933 45.3897 23.4457 42.8015 23.4457C41.0554 23.4457 39.4821 24.2791 38.6666 25.6064C37.9531 24.2791 36.5659 23.4413 35.0237 23.4413C33.8803 23.4413 32.79 23.9175 32.01 24.7377C31.9967 24.6186 31.6378 23.7014 30.4412 23.7014H29.7188C29.4219 23.7014 29.3066 23.8029 29.3066 24.1115L29.3155 24.1071Z" fill="#002163"/>
<path d="M123.38 24.2658L123.371 35.4926H126.185L126.19 28.6181C126.19 27.035 127.479 26.1972 128.68 26.1972C130.174 26.1972 131.162 27.1629 131.158 28.6225V35.497H133.99V28.6225C133.999 23.6661 129.682 23.5206 129.194 23.5206C128.033 23.5206 126.917 23.9969 126.123 24.8259C126.11 24.7068 125.888 23.7764 124.789 23.7764H123.876C123.548 23.7764 123.38 23.9219 123.38 24.2614V24.2658Z" fill="#002163"/>
<path d="M88.895 23.4501C85.4648 23.4501 82.6816 26.2105 82.6816 29.6235C82.6816 33.0365 85.4559 35.8013 88.8862 35.8057C92.3164 35.8057 95.0951 33.0453 95.0995 29.6323C95.0995 26.2237 92.3252 23.4545 88.8995 23.4501H88.895ZM88.8995 33.032C87.0071 33.032 85.4781 31.5019 85.4781 29.6235C85.4781 27.745 87.0115 26.2193 88.9039 26.2193C90.7918 26.2193 92.3252 27.7494 92.3208 29.6279C92.3208 31.5063 90.7874 33.032 88.895 33.032H88.8995Z" fill="#002163"/>
<path d="M69.0037 35.7704C65.5868 35.7704 62.8081 33.0012 62.8125 29.6015C62.8125 26.2017 65.6001 23.4325 69.017 23.4369C70.5859 23.4369 72.0705 24.0234 73.2228 25.0817C73.2583 25.1125 73.502 25.3198 73.2228 25.6064C72.9392 25.893 71.4545 27.2291 71.4545 27.2291L71.2994 27.0924C70.6701 26.5236 69.8546 26.2105 69.0126 26.2105C67.1335 26.2105 65.6001 27.7274 65.6001 29.6015C65.6001 31.4711 67.1291 32.9968 69.0082 32.9968C69.8635 32.9968 70.7986 32.6793 71.4324 32.1105C71.4855 32.062 71.7027 31.89 71.9553 32.1193L73.307 33.6053L73.5197 33.8346C73.5197 33.8346 73.2982 34.0551 73.2627 34.086C72.106 35.1663 70.6036 35.7616 69.0126 35.7616L69.0037 35.7704Z" fill="#002163"/>
<path d="M29.3247 11.1166H30.0072V14.3223H34.0889V11.121H34.7714L34.767 18.3879H34.0845V14.9397H30.0028V18.3835H29.3203L29.3247 11.1166Z" fill="#002163"/>
<path d="M40.1115 17.0562C40.1115 17.1488 40.1115 17.2546 40.1204 17.3825C40.1248 17.506 40.1292 17.6294 40.1337 17.7661C40.1337 17.894 40.147 18.0175 40.147 18.1233C40.1558 18.2379 40.1558 18.3261 40.1558 18.3879H39.5398C39.5354 18.2115 39.5309 18.0395 39.5265 17.8764C39.5265 17.7088 39.5177 17.603 39.4999 17.5589H39.4689C39.3492 17.819 39.1409 18.0439 38.8529 18.2291C38.5648 18.4187 38.228 18.5113 37.8424 18.5113C37.4702 18.5113 37.1688 18.454 36.9295 18.335C36.6946 18.2203 36.5085 18.0704 36.3755 17.8764C36.2381 17.6868 36.1495 17.4707 36.1007 17.2238C36.0475 16.9812 36.0254 16.7255 36.0254 16.4697V13.6432H36.6458V16.4388C36.6458 16.6285 36.6636 16.8137 36.6946 16.9989C36.7256 17.1752 36.7877 17.3384 36.8763 17.4839C36.9605 17.625 37.0802 17.7397 37.2353 17.8235C37.386 17.9116 37.581 17.9513 37.8336 17.9513C38.0552 17.9513 38.2767 17.9072 38.4762 17.8323C38.68 17.7529 38.8529 17.6382 39.0036 17.4707C39.1498 17.3119 39.2695 17.1091 39.3537 16.871C39.4423 16.6285 39.4822 16.3418 39.4822 16.0155V13.6432H40.1071V17.0474L40.1115 17.0562Z" fill="#002163"/>
<path d="M41.3129 14.9881C41.3129 14.8999 41.3041 14.7897 41.2997 14.6618C41.2997 14.5339 41.2908 14.4061 41.2864 14.2782C41.2819 14.1459 41.2775 14.0268 41.2686 13.9122C41.2642 13.7975 41.2598 13.7138 41.2598 13.652H41.8802C41.8847 13.8284 41.8891 14.0004 41.8979 14.1679C41.8979 14.3267 41.9068 14.4325 41.9201 14.4854H41.9511C42.0797 14.2253 42.2835 14.0004 42.5716 13.8108C42.8596 13.6256 43.1965 13.533 43.582 13.533C43.8967 13.533 44.1892 13.6079 44.4462 13.7755C44.7077 13.9342 44.8938 14.1944 45.0135 14.556C45.1686 14.2032 45.3902 13.943 45.6916 13.7799C45.9929 13.6167 46.3032 13.5374 46.6355 13.5374C47.0034 13.5374 47.3047 13.5947 47.5396 13.7093C47.7745 13.824 47.9607 13.9783 48.0892 14.1635C48.2221 14.3531 48.3152 14.5692 48.3728 14.8161C48.426 15.0587 48.4482 15.3188 48.4482 15.5746V18.3967H47.8277V15.6055C47.8277 15.4158 47.81 15.2306 47.7745 15.0454C47.7435 14.8646 47.6859 14.6971 47.5972 14.556C47.513 14.4105 47.389 14.3002 47.2338 14.212C47.0832 14.1282 46.8793 14.0842 46.6311 14.0842C46.3386 14.0842 46.1037 14.1371 45.9176 14.2429C45.7315 14.3487 45.5852 14.4854 45.4744 14.6486C45.368 14.8117 45.2971 14.9925 45.2484 15.1777C45.2041 15.3717 45.1819 15.5525 45.1819 15.7245V18.3923H44.5615V15.5393C44.5615 15.1028 44.4817 14.75 44.3221 14.4854C44.1582 14.2164 43.91 14.0842 43.5732 14.0842C43.3427 14.0842 43.1344 14.1238 42.9261 14.2032C42.7223 14.2782 42.5494 14.4016 42.3987 14.556C42.2525 14.7191 42.1328 14.922 42.0442 15.1645C41.96 15.407 41.9112 15.6936 41.9112 16.02V18.3879H41.2952V14.9837L41.3129 14.9881Z" fill="#002163"/>
<path d="M53.221 16.4124C53.221 16.6417 53.221 16.8577 53.221 17.0385C53.2254 17.2237 53.2343 17.3957 53.2343 17.55C53.2387 17.7044 53.2476 17.8543 53.2609 17.9866C53.2697 18.1277 53.2875 18.2644 53.3052 18.4011H52.729C52.6847 18.1674 52.667 17.9116 52.667 17.6294H52.6448C52.4676 17.9337 52.246 18.163 51.9801 18.3041C51.7186 18.4496 51.3818 18.5246 50.9785 18.5246C50.7702 18.5246 50.5663 18.4981 50.3669 18.4452C50.163 18.3967 49.9858 18.3129 49.8306 18.1982C49.6711 18.0924 49.547 17.9381 49.4451 17.7661C49.3431 17.5853 49.2988 17.3737 49.2988 17.1179C49.2988 16.7563 49.3919 16.4653 49.578 16.2536C49.7642 16.042 49.9902 15.8832 50.265 15.7774C50.5353 15.6716 50.8234 15.6054 51.1336 15.579C51.435 15.5481 51.7097 15.5305 51.9358 15.5305H52.6581V15.2438C52.6581 14.8337 52.534 14.5383 52.277 14.3575C52.0244 14.1855 51.7097 14.0929 51.3242 14.0929C50.7746 14.0929 50.2871 14.2693 49.8705 14.6265L49.5116 14.2032C49.7376 13.9871 50.0168 13.8151 50.358 13.7049C50.6948 13.5991 51.0184 13.5417 51.3286 13.5417C51.9047 13.5417 52.3656 13.674 52.7069 13.9474C53.0526 14.2164 53.2254 14.653 53.2254 15.2571V16.4168L53.221 16.4124ZM51.9845 16.0199C51.7275 16.0199 51.4748 16.042 51.2311 16.0728C50.9829 16.1081 50.7658 16.1654 50.5663 16.2448C50.3669 16.3242 50.2162 16.4388 50.0966 16.5711C49.9813 16.7078 49.9193 16.8798 49.9193 17.087C49.9193 17.2326 49.9547 17.3604 50.0168 17.4707C50.0833 17.5809 50.1719 17.6779 50.2738 17.7529C50.3758 17.8234 50.491 17.8808 50.6195 17.916C50.7436 17.9513 50.8721 17.9734 51.0006 17.9734C51.3286 17.9734 51.6034 17.9293 51.8161 17.8278C52.0288 17.7308 52.1972 17.6074 52.3258 17.453C52.4543 17.2987 52.5429 17.1223 52.5917 16.9283C52.6404 16.7343 52.6626 16.5358 52.6626 16.3374V16.0155H51.9845V16.0199Z" fill="#002163"/>
<path d="M54.3652 15.0014C54.3652 14.9132 54.3652 14.803 54.3563 14.6751C54.3519 14.5472 54.3474 14.4194 54.343 14.2915C54.3386 14.1592 54.3341 14.0401 54.3253 13.9255C54.3253 13.8108 54.3164 13.7271 54.3164 13.6653H54.9324C54.9369 13.8417 54.9457 14.0137 54.9457 14.1812C54.9457 14.3444 54.9635 14.4458 54.9767 14.4987H55.0078C55.1363 14.2386 55.3357 14.0137 55.6238 13.8241C55.9119 13.6389 56.2531 13.5463 56.6342 13.5463C57.0065 13.5463 57.3123 13.6036 57.5428 13.7182C57.7776 13.8329 57.9593 13.9872 58.0967 14.1724C58.2297 14.362 58.3183 14.5781 58.3715 14.825C58.4247 15.0676 58.4513 15.3277 58.4513 15.5835V18.4056H57.8308V15.6143C57.8308 15.4247 57.8175 15.2395 57.7776 15.0543C57.7466 14.8735 57.689 14.706 57.6004 14.5649C57.5117 14.4194 57.3965 14.3091 57.237 14.2209C57.0819 14.1371 56.8824 14.0931 56.6342 14.0931C56.4082 14.0931 56.1955 14.1327 55.9916 14.2121C55.7878 14.2871 55.6194 14.4105 55.4687 14.5649C55.318 14.728 55.2028 14.9309 55.1186 15.1734C55.0299 15.4159 54.99 15.7025 54.99 16.0288V18.3968H54.3652V14.9926V15.0014Z" fill="#002163"/>
<path d="M60.8613 18.0396L63.7243 14.2297H61.012V13.6697H64.5796V14.0445L61.73 17.8588H64.6993V18.4144H60.8613V18.0396Z" fill="#002163"/>
<path d="M65.2188 11.7956C65.2188 11.6634 65.2675 11.5531 65.3517 11.4693C65.4403 11.3767 65.5511 11.3326 65.6841 11.3326C65.8126 11.3326 65.919 11.3811 66.012 11.4737C66.1007 11.5575 66.145 11.6678 66.145 11.8001C66.145 11.9279 66.0962 12.0338 66.012 12.1264C65.919 12.2146 65.8082 12.2586 65.6841 12.2586C65.5511 12.2586 65.4403 12.219 65.3517 12.1264C65.2631 12.0338 65.2188 11.9279 65.2188 11.8001V11.7956ZM65.3694 13.6741H65.9899V18.4144H65.3694V13.6741Z" fill="#002163"/>
<path d="M67.2114 15.0102C67.2114 14.922 67.207 14.8118 67.2025 14.6839C67.1937 14.556 67.1937 14.4281 67.1848 14.3003C67.1848 14.168 67.1759 14.0489 67.1715 13.9343C67.1626 13.8196 67.1582 13.7358 67.1582 13.6741H67.7787C67.7831 13.8505 67.792 14.0225 67.792 14.19C67.792 14.3532 67.8097 14.4546 67.8185 14.5075H67.8451C67.9737 14.2474 68.182 14.0225 68.4656 13.8329C68.7537 13.6477 69.0905 13.5551 69.476 13.5551C69.8483 13.5551 70.1497 13.6124 70.3801 13.727C70.6194 13.8417 70.8011 13.996 70.9341 14.1812C71.0671 14.3708 71.1601 14.5869 71.2133 14.8338C71.2621 15.0764 71.2886 15.3365 71.2842 15.5923V18.4144H70.6682V15.6231C70.6682 15.4335 70.6549 15.2483 70.6194 15.0631C70.584 14.8823 70.5264 14.7148 70.4377 14.5737C70.3535 14.4281 70.2294 14.3179 70.0788 14.2297C69.9281 14.1459 69.7242 14.1018 69.476 14.1018C69.25 14.1018 69.0373 14.1415 68.8334 14.2209C68.6296 14.2959 68.4523 14.4193 68.3016 14.5737C68.1554 14.7368 68.0446 14.9397 67.9515 15.1822C67.8629 15.4247 67.823 15.7113 67.823 16.0376V18.4056H67.2025V15.0014L67.2114 15.0102Z" fill="#002163"/>
<path d="M77.0019 18.1145C77.0019 18.701 76.9133 19.1772 76.7405 19.5388C76.5676 19.9004 76.3505 20.1782 76.1023 20.381C75.8408 20.5751 75.5616 20.7118 75.2691 20.7823C74.9766 20.8485 74.7063 20.8793 74.4625 20.8793C74.2232 20.8793 73.9883 20.8573 73.7578 20.8132C73.5274 20.7691 73.3102 20.7073 73.1019 20.6236C72.8981 20.5354 72.7119 20.4295 72.5435 20.3061C72.3707 20.1826 72.2289 20.0459 72.1048 19.8872L72.5923 19.433C72.8094 19.7417 73.0842 19.9665 73.4122 20.1121C73.7445 20.2576 74.0991 20.3281 74.4669 20.3325C74.7816 20.3325 75.0475 20.2884 75.2647 20.2091C75.4818 20.1253 75.6635 20.0195 75.8053 19.8872C75.9472 19.7505 76.0535 19.605 76.1333 19.4418C76.2131 19.2831 76.2707 19.1243 76.3106 18.9612C76.3505 18.8024 76.3726 18.6525 76.3815 18.507C76.3815 18.3615 76.3859 18.2512 76.3859 18.1586V17.5016H76.3637C76.1865 17.7882 75.9427 18.0087 75.6369 18.1807C75.3267 18.3394 74.9722 18.4232 74.56 18.4232C74.2099 18.4232 73.8819 18.3615 73.5673 18.2336C73.2571 18.1101 72.9911 17.9337 72.7607 17.7088C72.5258 17.484 72.3485 17.2282 72.2111 16.9328C72.0826 16.6373 72.0117 16.3242 72.0117 15.9891C72.0117 15.654 72.0826 15.3409 72.2111 15.0455C72.3485 14.75 72.5258 14.4943 72.7607 14.2738C72.9911 14.0533 73.2615 13.8813 73.5673 13.7535C73.8819 13.6256 74.2099 13.5594 74.56 13.5594C74.9722 13.5594 75.3267 13.6388 75.6369 13.8064C75.9427 13.9695 76.182 14.1988 76.3637 14.4855H76.3859V13.6829H77.0064V18.1145H77.0019ZM76.4036 15.9935C76.4036 15.7334 76.3549 15.4864 76.253 15.2615C76.151 15.0278 76.0225 14.8338 75.8497 14.6618C75.6812 14.4943 75.4818 14.362 75.2514 14.265C75.0165 14.1636 74.7772 14.1151 74.5201 14.1151C74.2586 14.1151 74.0105 14.1636 73.78 14.265C73.5496 14.362 73.3501 14.4943 73.1817 14.6618C73.0133 14.8338 72.8803 15.0278 72.7828 15.2615C72.6809 15.4864 72.6322 15.7334 72.6322 15.9935C72.6322 16.2537 72.6853 16.4962 72.7828 16.7255C72.8848 16.9548 73.0133 17.1532 73.1817 17.3208C73.3501 17.4884 73.5496 17.6251 73.78 17.7221C74.0105 17.8191 74.2542 17.872 74.5201 17.872C74.7772 17.872 75.0209 17.8235 75.2558 17.7221C75.4907 17.6251 75.6901 17.4884 75.8585 17.3208C76.0269 17.1532 76.1599 16.9548 76.2618 16.7255C76.3637 16.4962 76.4125 16.2537 76.4125 15.9935H76.4036Z" fill="#002163"/>
<path d="M86.3573 17.9558C85.9363 18.1939 85.4931 18.3659 85.0322 18.4629C84.5801 18.5599 84.1148 18.6128 83.6406 18.6128C83.0822 18.6128 82.577 18.5158 82.1116 18.3306C81.6507 18.141 81.2519 17.8764 80.9195 17.5413C80.5871 17.2017 80.3345 16.8005 80.1483 16.333C79.9578 15.8612 79.8691 15.3541 79.8691 14.7985C79.8691 14.2473 79.9622 13.7314 80.1483 13.2728C80.3345 12.8054 80.5915 12.4085 80.9195 12.0646C81.2519 11.7251 81.6507 11.4649 82.1116 11.2709C82.577 11.0813 83.0866 10.9843 83.6406 10.9843C84.7264 10.9843 85.5995 11.3194 86.2731 11.9896L85.7767 12.5056C85.6704 12.3777 85.533 12.2542 85.369 12.1351C85.2095 12.0293 85.0322 11.9279 84.8461 11.8485C84.6555 11.7692 84.4605 11.7074 84.2522 11.6677C84.0483 11.6236 83.8445 11.5972 83.645 11.5972C83.1753 11.5972 82.7454 11.681 82.3598 11.8485C81.9831 12.0117 81.6552 12.2322 81.3848 12.5276C81.1189 12.8142 80.9106 13.1493 80.7644 13.5418C80.6181 13.9298 80.5472 14.3532 80.5428 14.8029C80.5428 15.2527 80.6137 15.676 80.7599 16.0641C80.9062 16.4565 81.11 16.7916 81.376 17.0827C81.6463 17.3649 81.9698 17.5942 82.3465 17.7573C82.7277 17.9249 83.162 18.0087 83.6317 18.0087C84.0217 18.0087 84.3896 17.9778 84.7353 17.9161C85.0809 17.8543 85.3912 17.7397 85.6748 17.5765V15.1292H83.9242V14.5163H86.3529V17.9646L86.3573 17.9558Z" fill="#002163"/>
<path d="M91.8531 17.5456C91.6138 17.9072 91.3168 18.163 90.9623 18.3261C90.6077 18.476 90.2177 18.5598 89.7879 18.5598C89.4289 18.5598 89.0921 18.4981 88.7996 18.3702C88.5026 18.2467 88.2544 18.0748 88.0373 17.8499C87.8246 17.6294 87.665 17.3648 87.5454 17.0606C87.4346 16.7563 87.377 16.4212 87.377 16.0464C87.377 15.6936 87.4346 15.3673 87.5498 15.0675C87.6695 14.7676 87.8334 14.503 88.0462 14.2826C88.2589 14.0621 88.5115 13.8857 88.7996 13.7622C89.0921 13.6343 89.4111 13.577 89.7568 13.577C90.1247 13.577 90.4482 13.6388 90.7274 13.7666C91.0022 13.8945 91.237 14.0577 91.4232 14.2693C91.6138 14.481 91.76 14.7191 91.8531 14.9837C91.9506 15.2527 91.9993 15.5216 91.9993 15.795V16.2272H87.9974C87.9974 16.355 88.0196 16.5182 88.0727 16.721C88.1259 16.9239 88.219 17.1223 88.3564 17.3119C88.4893 17.5059 88.6799 17.6691 88.9059 17.8058C89.1408 17.9425 89.4377 18.013 89.8012 18.013C90.1158 18.013 90.4216 17.9381 90.7185 17.7882C91.011 17.6382 91.2415 17.431 91.401 17.1752L91.8531 17.5589V17.5456ZM91.3789 15.6672C91.3789 15.4555 91.339 15.2527 91.2503 15.0719C91.1661 14.8867 91.0509 14.7235 90.9047 14.5824C90.754 14.4457 90.5811 14.3355 90.3773 14.2561C90.1734 14.1679 89.9607 14.1282 89.7347 14.1282C89.3979 14.1282 89.1142 14.1944 88.8971 14.3355C88.671 14.4678 88.4938 14.6265 88.3652 14.8029C88.2323 14.9837 88.1392 15.1512 88.086 15.3188C88.0284 15.4864 88.0018 15.601 88.0018 15.6627H91.3833L91.3789 15.6672Z" fill="#002163"/>
<path d="M92.7348 15.0278C92.7348 14.9396 92.7304 14.8294 92.7215 14.7015C92.7127 14.5736 92.7082 14.4457 92.7038 14.3178C92.7038 14.1856 92.6949 14.0665 92.6905 13.9519C92.6816 13.8372 92.6816 13.7534 92.6816 13.6917H93.3021C93.3021 13.8681 93.3154 14.04 93.3154 14.2076C93.3154 14.3708 93.3242 14.4722 93.342 14.5251H93.373C93.4971 14.2649 93.701 14.04 93.9979 13.8504C94.2815 13.6652 94.6228 13.5726 95.0039 13.5726C95.3762 13.5726 95.6775 13.63 95.9124 13.7446C96.1473 13.8593 96.329 14.0136 96.462 14.1988C96.5949 14.3884 96.688 14.6045 96.7412 14.8514C96.7899 15.0939 96.8165 15.3541 96.8165 15.6098V18.432H96.1961V15.6407C96.1961 15.4511 96.1828 15.2659 96.1473 15.0807C96.1119 14.8999 96.0498 14.7323 95.9656 14.5912C95.8814 14.4457 95.7617 14.3355 95.6066 14.2473C95.4515 14.1635 95.2477 14.1194 94.9995 14.1194C94.7734 14.1194 94.5563 14.1591 94.3524 14.2385C94.153 14.3134 93.9757 14.4369 93.825 14.5912C93.6788 14.7544 93.568 14.9572 93.4749 15.1998C93.3907 15.4423 93.3464 15.7289 93.3464 16.0552V18.4231H92.726V15.019L92.7348 15.0278Z" fill="#002163"/>
<path d="M97.5376 16.0684C97.5376 15.7024 97.5997 15.3717 97.7238 15.063C97.8479 14.7588 98.0207 14.4986 98.2423 14.2781C98.4594 14.0533 98.7254 13.8813 99.0312 13.7622C99.3458 13.6388 99.6782 13.577 100.046 13.577C100.409 13.577 100.746 13.6388 101.052 13.7622C101.358 13.8857 101.619 14.0577 101.845 14.2826C102.067 14.503 102.244 14.7676 102.364 15.0675C102.488 15.3717 102.55 15.7068 102.55 16.0728C102.55 16.4344 102.488 16.7651 102.364 17.0694C102.24 17.3737 102.063 17.6382 101.841 17.8587C101.619 18.0792 101.353 18.2556 101.048 18.3746C100.742 18.4981 100.405 18.5598 100.042 18.5598C99.6738 18.5598 99.3414 18.4981 99.0267 18.3702C98.7209 18.2467 98.455 18.0748 98.2379 17.8499C98.0207 17.6294 97.8479 17.3648 97.7193 17.0606C97.5952 16.7563 97.5332 16.4256 97.5332 16.064L97.5376 16.0684ZM98.1581 16.0684C98.1581 16.333 98.198 16.5888 98.2866 16.8181C98.3752 17.0562 98.4905 17.2634 98.6589 17.431C98.8229 17.6074 99.0223 17.7441 99.2572 17.8499C99.4921 17.9513 99.7491 18.0042 100.042 18.0042C100.33 18.0042 100.591 17.9513 100.822 17.8499C101.056 17.7441 101.26 17.6074 101.424 17.431C101.588 17.2634 101.717 17.0562 101.801 16.8181C101.885 16.5843 101.93 16.3286 101.93 16.0684C101.93 15.7994 101.885 15.5481 101.801 15.3144C101.717 15.0807 101.588 14.8778 101.424 14.6971C101.26 14.5251 101.061 14.3796 100.822 14.2826C100.591 14.1767 100.33 14.1282 100.042 14.1282C99.7491 14.1282 99.4921 14.1767 99.2572 14.2826C99.0223 14.3796 98.8229 14.5251 98.6589 14.6971C98.4905 14.8734 98.3708 15.0763 98.2866 15.31C98.198 15.5481 98.1581 15.7994 98.1537 16.064L98.1581 16.0684Z" fill="#002163"/>
<path d="M103.433 15.0367C103.433 14.9485 103.429 14.8383 103.424 14.7104C103.42 14.5825 103.415 14.4546 103.411 14.3268C103.411 14.1945 103.406 14.0754 103.398 13.9608C103.389 13.8461 103.389 13.7623 103.389 13.7006H104.005C104.005 13.877 104.014 14.049 104.018 14.2165C104.018 14.3797 104.031 14.4811 104.045 14.534H104.076C104.2 14.2738 104.404 14.049 104.696 13.8593C104.984 13.6741 105.321 13.5815 105.707 13.5815C106.026 13.5815 106.309 13.6565 106.571 13.8241C106.832 13.9828 107.018 14.243 107.138 14.6046C107.289 14.2518 107.515 13.9916 107.816 13.8285C108.113 13.6653 108.428 13.586 108.76 13.586C109.132 13.586 109.434 13.6433 109.669 13.7579C109.899 13.8726 110.09 14.0269 110.223 14.2121C110.355 14.4017 110.444 14.6178 110.497 14.8647C110.555 15.1073 110.577 15.3674 110.577 15.6232V18.4453H109.957V15.654C109.957 15.4644 109.943 15.2792 109.908 15.094C109.877 14.9132 109.81 14.7457 109.731 14.6046C109.642 14.459 109.522 14.3488 109.367 14.2606C109.212 14.1768 109.013 14.1327 108.764 14.1327C108.476 14.1327 108.237 14.1857 108.055 14.2915C107.869 14.3973 107.723 14.534 107.617 14.6972C107.506 14.8603 107.435 15.0411 107.391 15.2263C107.346 15.4203 107.324 15.6011 107.324 15.7731V18.4409H106.699V15.5879C106.699 15.1513 106.624 14.7986 106.46 14.534C106.296 14.265 106.052 14.1327 105.715 14.1327C105.489 14.1327 105.277 14.1724 105.073 14.2518C104.869 14.3268 104.696 14.4502 104.545 14.6046C104.395 14.7677 104.279 14.9706 104.191 15.2131C104.102 15.4556 104.062 15.7422 104.062 16.0685V18.4365H103.446V15.0323L103.433 15.0367Z" fill="#002163"/>
<path d="M111.602 11.8353C111.602 11.703 111.646 11.5928 111.735 11.509C111.819 11.4164 111.934 11.3723 112.062 11.3723C112.195 11.3723 112.297 11.4208 112.395 11.5134C112.483 11.5972 112.523 11.7074 112.523 11.8397C112.523 11.9676 112.483 12.0734 112.395 12.166C112.297 12.2542 112.191 12.2983 112.062 12.2983C111.934 12.2983 111.819 12.2586 111.735 12.166C111.641 12.0734 111.602 11.9676 111.602 11.8397V11.8353ZM111.757 13.7094H112.373V18.4497H111.757V13.7094Z" fill="#002163"/>
<path d="M117.403 17.7573C117.164 18.0395 116.903 18.2424 116.61 18.3835C116.313 18.5158 115.99 18.5819 115.649 18.5819C115.285 18.5819 114.948 18.5202 114.638 18.3923C114.328 18.2688 114.066 18.0969 113.845 17.8764C113.623 17.6559 113.45 17.3913 113.326 17.0871C113.207 16.7828 113.145 16.4521 113.145 16.0905C113.145 15.7245 113.207 15.3938 113.331 15.0851C113.455 14.7809 113.628 14.5207 113.849 14.3002C114.071 14.0754 114.332 13.9034 114.642 13.7843C114.953 13.6609 115.29 13.5991 115.653 13.5991C116.003 13.5991 116.322 13.6697 116.628 13.8108C116.925 13.9563 117.195 14.1591 117.43 14.4193L116.934 14.7853C116.752 14.5913 116.557 14.4325 116.344 14.3179C116.132 14.2121 115.901 14.1503 115.653 14.1503C115.365 14.1503 115.103 14.1988 114.869 14.3047C114.634 14.4017 114.434 14.5472 114.27 14.7191C114.106 14.8955 113.982 15.0984 113.894 15.3321C113.805 15.5702 113.765 15.8215 113.765 16.0861C113.765 16.3507 113.805 16.6064 113.894 16.8357C113.978 17.0739 114.102 17.2811 114.266 17.4487C114.43 17.625 114.634 17.7617 114.864 17.8676C115.099 17.969 115.36 18.0219 115.649 18.0219C115.91 18.0219 116.149 17.9646 116.362 17.8411C116.579 17.7221 116.77 17.5633 116.929 17.3693L117.403 17.7573Z" fill="#002163"/>
<path d="M118.369 17.2458C118.498 17.4971 118.693 17.6912 118.945 17.8234C119.198 17.9601 119.473 18.0263 119.752 18.0263C119.876 18.0263 120.009 18.0042 120.142 17.969C120.271 17.9293 120.39 17.8675 120.492 17.7926C120.599 17.7176 120.683 17.6294 120.745 17.5236C120.811 17.4222 120.842 17.2943 120.842 17.162C120.842 16.9415 120.776 16.7784 120.63 16.6637C120.488 16.5579 120.315 16.4697 120.111 16.4124C119.903 16.3507 119.681 16.2977 119.433 16.2536C119.185 16.2051 118.959 16.139 118.75 16.042C118.542 15.9494 118.369 15.8259 118.232 15.6628C118.09 15.4908 118.019 15.2659 118.019 14.9661C118.019 14.7323 118.068 14.5295 118.161 14.3619C118.263 14.19 118.387 14.0445 118.538 13.9342C118.693 13.824 118.866 13.7358 119.061 13.6873C119.256 13.63 119.451 13.6079 119.65 13.6079C120.045 13.6079 120.381 13.6785 120.665 13.8196C120.949 13.9651 121.17 14.19 121.33 14.4986L120.771 14.8249C120.652 14.6089 120.505 14.4413 120.333 14.3267C120.151 14.2208 119.929 14.1591 119.646 14.1591C119.535 14.1591 119.42 14.1723 119.3 14.2076C119.185 14.2429 119.078 14.2914 118.976 14.3531C118.883 14.4104 118.799 14.4942 118.737 14.5912C118.671 14.6883 118.64 14.7941 118.64 14.9176C118.64 15.1292 118.711 15.288 118.852 15.3894C118.99 15.4864 119.163 15.5702 119.366 15.6319C119.579 15.6848 119.805 15.7377 120.053 15.7818C120.293 15.8215 120.528 15.8921 120.731 15.9803C120.935 16.0729 121.113 16.2051 121.254 16.3815C121.392 16.5579 121.463 16.8048 121.463 17.1223C121.463 17.3693 121.418 17.5809 121.321 17.7661C121.228 17.9469 121.104 18.0968 120.94 18.2247C120.776 18.3482 120.594 18.4364 120.39 18.4981C120.182 18.5598 119.965 18.5907 119.739 18.5907C119.331 18.5907 118.95 18.5069 118.613 18.357C118.272 18.1939 118.01 17.9513 117.824 17.625L118.369 17.259V17.2458Z" fill="#002163"/>
<path d="M59.315 11.7913C59.315 11.659 59.3593 11.5487 59.4479 11.4649C59.5366 11.3723 59.6429 11.3282 59.7759 11.3282C59.9044 11.3282 60.0152 11.3768 60.1038 11.4694C60.1925 11.5531 60.2368 11.6634 60.2368 11.7957C60.2368 11.9235 60.188 12.0294 60.1038 12.122C60.0108 12.2102 59.9044 12.2543 59.7715 12.2543C59.6385 12.2543 59.5321 12.2146 59.4435 12.122C59.3549 12.0294 59.3105 11.9235 59.3105 11.7957L59.315 11.7913ZM59.4657 13.6697H60.0861V18.41H59.4657V13.6697Z" fill="#002163"/>
<path d="M13.0457 7.61091C13.1875 8.66039 13.5465 10.0185 14.1182 10.6976C14.9912 11.7339 15.7402 9.63049 15.7624 8.50164C15.7845 7.25815 15.1331 6.14253 14.2423 5.98379C13.1831 5.79417 12.9349 6.7731 13.0457 7.61532V7.61091Z" fill="#E50050"/>
<path d="M24.4497 35.8676C19.362 31.4713 12.9137 30.7878 8.92067 30.1264C9.28408 28.3802 9.85135 26.5194 10.6757 24.5527C11.6861 22.1451 12.1515 20.6635 12.28 19.442C12.3021 19.226 12.085 18.9261 11.859 19.3847C11.4867 20.1343 9.85578 23.4459 8.76113 25.3597C6.88205 25.1524 4.75921 25.3332 3.32774 25.8094C3.45626 25.6551 3.79751 25.3553 3.97921 25.2053C5.67659 23.7855 10.6314 21.0736 16.632 12.6778C16.8093 12.4264 16.8758 12.1619 16.7605 11.8708L16.5478 11.3637C16.4326 11.1565 16.1578 11.0506 15.9362 11.3946C15.4797 12.1001 14.4826 13.8772 12.5415 15.9761C12.506 15.3588 12.2578 14.6797 12.1603 14.3049C11.695 12.4749 10.6136 8.7268 12.8783 4.28638C13.9153 2.25798 14.0571 1.76411 12.5725 0.313365C12.0938 -0.158458 11.4823 -0.109953 11.1366 0.573529C9.98874 2.8224 8.57056 5.52987 10.0907 11.3902C10.6491 13.542 12.0495 16.4656 11.5753 17.0212C9.81147 19.0937 7.52466 20.7693 4.59967 22.6875C1.91399 24.4381 0.358431 24.9893 0.0526365 26.4268C-0.199976 27.6306 0.358431 29.412 3.90387 30.4262C4.84785 30.6952 5.80955 30.8893 6.29261 30.9907C4.57308 37.7505 5.32205 42.6187 8.05204 47.2267C9.21317 49.1889 10.8928 50.04 12.7187 50.0003C13.4633 49.9826 13.7602 49.3433 13.2993 48.7083C12.9359 48.2144 10.7599 45.8112 9.43476 41.7324C9.38158 41.5339 9.39044 41.3399 9.44363 41.1371C9.44363 41.1371 9.44363 41.1327 9.44363 41.1282C11.1011 35.9206 14.7219 33.7687 15.4044 33.4027C15.6482 33.2969 15.8875 33.3233 16.1445 33.4159C17.5494 33.9142 18.9942 34.7961 20.0179 35.581C20.9796 36.3174 20.9486 37.3625 19.6634 38.6677C16.7694 41.6045 15.4399 43.7696 14.7707 45.0395C14.3541 45.8288 14.1502 46.4903 14.2787 47.2267C14.425 48.0733 14.9834 48.0954 15.5639 47.3545C17.5228 44.8367 19.3576 42.6275 23.8824 39.554C25.9078 38.1783 25.7482 36.9877 24.4497 35.8676ZM6.69591 29.6943C5.20682 29.4561 4.09887 29.0681 3.34103 28.27C2.97319 27.8819 2.80035 27.4322 2.85354 26.9559C4.09887 26.5547 5.73864 26.4621 8.0609 26.8325C7.66647 27.6615 7.10364 28.7683 6.69148 29.6943H6.69591ZM12.9713 32.5428C12.8384 32.6663 12.7187 32.7854 12.6345 32.8691C10.2015 35.0078 9.15113 37.7153 8.75227 39.0778C8.33124 36.8333 8.22488 34.2229 8.70795 31.2641C9.67851 31.3964 10.977 31.6389 12.3642 32.0093C12.537 32.0578 12.7099 32.1019 12.8783 32.1504C12.896 32.1504 12.9093 32.1592 12.927 32.168C13.122 32.2386 13.1353 32.3841 12.9713 32.5428Z" fill="url(#paint0_linear_466_140)"/>
</g>
<defs>
<linearGradient id="paint0_linear_466_140" x1="12.7305" y1="2.16757" x2="12.6905" y2="48.2342" gradientUnits="userSpaceOnUse">
<stop stop-color="#8FC31F"/>
<stop offset="0.3" stop-color="#38B572"/>
<stop offset="0.51" stop-color="#00ADA9"/>
<stop offset="0.61" stop-color="#008C98"/>
<stop offset="0.88" stop-color="#003F72"/>
<stop offset="1" stop-color="#002163"/>
</linearGradient>
<clipPath id="clip0_466_140">
<rect width="134" height="50" fill="white"/>
</clipPath>
</defs>
</svg>
