<svg width="134" height="50" viewBox="0 0 134 50" fill="none" xmlns="http://www.w3.org/2000/svg">
<g clip-path="url(#clip0_170_4326)">
<path d="M121.674 30.4349C121.665 30.6465 121.652 30.77 121.652 30.77L112.615 30.7612C112.766 31.8459 114.003 33.182 115.775 33.1864C117.029 33.1864 118.022 32.8601 118.922 32.1855C118.984 32.1414 119.303 31.9209 119.595 32.2737L120.929 33.7861C120.929 33.7861 119.223 35.819 115.766 35.8145C111.884 35.8145 109.81 32.8601 109.814 29.4692C109.814 26.1135 112.332 23.4678 115.642 23.4678C118.762 23.4678 121.909 25.5182 121.674 30.4305V30.4349ZM118.935 28.2874C118.669 26.8764 117.561 25.9459 115.859 25.9327C114.357 25.9195 113.01 26.7882 112.624 28.283H118.935V28.2874Z" fill="white"/>
<path d="M102.418 41.0218C105.706 41.0218 108.565 38.2878 108.565 35.1835C108.565 33.9312 108.565 30.1698 108.565 30.1698C108.569 29.7465 108.565 29.3805 108.565 29.3805C108.427 26.091 105.728 23.4673 102.387 23.4629C98.9565 23.4629 96.1822 26.2233 96.1777 29.6363C96.1777 33.0493 98.9476 35.8141 102.378 35.8185C103.659 35.8185 104.851 35.4348 105.839 34.7734V34.9145C105.839 36.7886 104.301 38.3143 102.413 38.3143C101.354 38.3143 100.379 37.7102 99.6567 36.9473C99.506 36.7886 99.3553 36.696 99.0894 36.8635C98.8279 37.0311 97.1926 38.1423 97.1926 38.1423C98.757 40.594 101.11 41.0262 102.413 41.0306L102.418 41.0218ZM102.396 33.0449C100.503 33.0449 98.9742 31.5147 98.9786 29.6363C98.9786 27.7578 100.512 26.2321 102.404 26.2321C104.297 26.2321 105.826 27.7622 105.826 29.6407C105.826 31.5192 104.292 33.0449 102.4 33.0449H102.396Z" fill="white"/>
<path d="M61.5264 24.2435L61.5176 35.4526H58.7521V34.1562C57.8126 35.144 56.4919 35.6687 54.8876 35.6643C51.3023 35.6643 48.7983 33.142 48.8027 29.535C48.8027 25.9324 51.3111 23.4145 54.9009 23.419C56.4919 23.419 57.8082 23.9349 58.7388 24.9138C58.7388 24.9138 59.2175 23.7144 60.3476 23.7144H60.9902C61.4245 23.7144 61.5309 23.8687 61.5309 24.2391L61.5264 24.2435ZM55.1801 25.9721C53.2212 25.9721 51.6258 27.5728 51.6214 29.5394C51.6214 31.5105 53.2168 33.1112 55.1712 33.1156C57.139 33.1156 58.7344 31.5193 58.7388 29.5482C58.7388 27.5816 57.1434 25.9765 55.1757 25.9765L55.1801 25.9721Z" fill="white"/>
<path d="M74.7511 24.1646L74.7422 35.4707H77.5387C77.5387 35.4707 77.5298 30.3204 77.5431 28.8873C77.5652 26.9603 78.6643 26.2548 80.2066 26.2459C81.2924 26.2371 81.9926 26.7089 81.9926 26.7089L83.6368 24.4998C82.8568 23.9574 81.7755 23.5693 80.7694 23.5693C79.6526 23.5693 78.2832 23.8692 77.4633 24.6894C77.4633 24.6894 76.896 23.7413 75.797 23.7369H75.212C74.9416 23.7369 74.7511 23.8824 74.7511 24.169V24.1646Z" fill="white"/>
<path d="M29.3155 24.1072L29.3066 35.4354H32.143L32.1474 28.5344C32.1474 26.9382 33.3529 26.1136 34.5273 26.1136C35.9056 26.1136 36.9116 27.1719 36.9072 28.5389V35.4442H39.8632V28.5389C39.8676 27.1719 40.8781 26.118 42.2519 26.118C43.6258 26.118 44.6318 27.1763 44.6318 28.5433V35.4486H47.4815V27.5643C47.4903 25.2934 45.3897 23.4458 42.8015 23.4458C41.0554 23.4458 39.4821 24.2792 38.6666 25.6065C37.9531 24.2792 36.5659 23.4414 35.0237 23.4414C33.8803 23.4414 32.79 23.9176 32.01 24.7378C31.9967 24.6188 31.6378 23.7016 30.4412 23.7016H29.7188C29.4219 23.7016 29.3066 23.803 29.3066 24.1117L29.3155 24.1072Z" fill="white"/>
<path d="M123.38 24.2657L123.371 35.4925H126.185L126.19 28.618C126.19 27.0349 127.479 26.1971 128.68 26.1971C130.174 26.1971 131.162 27.1628 131.158 28.6224V35.4969H133.99V28.6224C133.999 23.666 129.682 23.5205 129.194 23.5205C128.033 23.5205 126.917 23.9967 126.123 24.8257C126.11 24.7067 125.888 23.7763 124.789 23.7763H123.876C123.548 23.7763 123.38 23.9218 123.38 24.2613V24.2657Z" fill="white"/>
<path d="M88.897 23.4502C85.4668 23.4502 82.6836 26.2106 82.6836 29.6236C82.6836 33.0366 85.4579 35.8014 88.8881 35.8058C92.3183 35.8058 95.0971 33.0454 95.1015 29.6324C95.1015 26.2238 92.3272 23.4546 88.9014 23.4502H88.897ZM88.9014 33.0322C87.009 33.0322 85.4801 31.5021 85.4801 29.6236C85.4801 27.7451 87.0135 26.2194 88.9058 26.2194C90.7938 26.2194 92.3272 27.7495 92.3228 29.628C92.3228 31.5065 90.7894 33.0322 88.897 33.0322H88.9014Z" fill="white"/>
<path d="M69.0018 35.7701C65.5849 35.7701 62.8061 33.0009 62.8106 29.6011C62.8106 26.2013 65.5982 23.4321 69.0151 23.4365C70.5839 23.4365 72.0686 24.023 73.2209 25.0813C73.2563 25.1122 73.5001 25.3194 73.2209 25.606C72.9372 25.8927 71.4526 27.2287 71.4526 27.2287L71.2975 27.0921C70.6681 26.5232 69.8527 26.2101 69.0106 26.2101C67.1316 26.2101 65.5982 27.727 65.5982 29.6011C65.5982 31.4707 67.1271 32.9965 69.0062 32.9965C69.8616 32.9965 70.7967 32.679 71.4304 32.1101C71.4836 32.0616 71.7008 31.8897 71.9534 32.1189L73.3051 33.605L73.5178 33.8343C73.5178 33.8343 73.2962 34.0547 73.2607 34.0856C72.104 35.166 70.6017 35.7612 69.0106 35.7612L69.0018 35.7701Z" fill="white"/>
<path d="M29.3247 11.1162H30.0072V14.322H34.0889V11.1206H34.7714L34.767 18.3876H34.0845V14.9393H30.0028V18.3832H29.3203L29.3247 11.1162Z" fill="white"/>
<path d="M40.1115 17.0566C40.1115 17.1492 40.1115 17.255 40.1204 17.3829C40.1248 17.5063 40.1292 17.6298 40.1337 17.7665C40.1337 17.8944 40.147 18.0178 40.147 18.1237C40.1558 18.2383 40.1558 18.3265 40.1558 18.3882H39.5398C39.5354 18.2119 39.5309 18.0399 39.5265 17.8767C39.5265 17.7092 39.5177 17.6033 39.4999 17.5592H39.4689C39.3492 17.8194 39.1409 18.0443 38.8529 18.2295C38.5648 18.4191 38.228 18.5117 37.8424 18.5117C37.4702 18.5117 37.1688 18.4544 36.9295 18.3353C36.6946 18.2207 36.5085 18.0708 36.3755 17.8767C36.2381 17.6871 36.1495 17.4711 36.1007 17.2241C36.0475 16.9816 36.0254 16.7258 36.0254 16.4701V13.6436H36.6458V16.4392C36.6458 16.6288 36.6636 16.814 36.6946 16.9992C36.7256 17.1756 36.7877 17.3388 36.8763 17.4843C36.9605 17.6254 37.0802 17.74 37.2353 17.8238C37.386 17.912 37.581 17.9517 37.8336 17.9517C38.0552 17.9517 38.2767 17.9076 38.4762 17.8326C38.68 17.7533 38.8529 17.6386 39.0036 17.4711C39.1498 17.3123 39.2695 17.1095 39.3537 16.8714C39.4423 16.6288 39.4822 16.3422 39.4822 16.0159V13.6436H40.1071V17.0477L40.1115 17.0566Z" fill="white"/>
<path d="M41.3129 14.9884C41.3129 14.9002 41.3041 14.7899 41.2997 14.6621C41.2997 14.5342 41.2908 14.4063 41.2864 14.2784C41.2819 14.1461 41.2775 14.0271 41.2686 13.9124C41.2642 13.7978 41.2598 13.714 41.2598 13.6523H41.8802C41.8847 13.8286 41.8891 14.0006 41.8979 14.1682C41.8979 14.3269 41.9068 14.4328 41.9201 14.4857H41.9511C42.0797 14.2255 42.2835 14.0006 42.5716 13.811C42.8596 13.6258 43.1965 13.5332 43.582 13.5332C43.8967 13.5332 44.1892 13.6082 44.4462 13.7757C44.7077 13.9345 44.8938 14.1946 45.0135 14.5562C45.1686 14.2035 45.3902 13.9433 45.6916 13.7801C45.9929 13.617 46.3032 13.5376 46.6355 13.5376C47.0034 13.5376 47.3047 13.5949 47.5396 13.7096C47.7745 13.8242 47.9607 13.9786 48.0892 14.1638C48.2221 14.3534 48.3152 14.5694 48.3728 14.8164C48.426 15.0589 48.4482 15.3191 48.4482 15.5748V18.3969H47.8277V15.6057C47.8277 15.4161 47.81 15.2309 47.7745 15.0457C47.7435 14.8649 47.6859 14.6973 47.5972 14.5562C47.513 14.4107 47.389 14.3005 47.2338 14.2123C47.0832 14.1285 46.8793 14.0844 46.6311 14.0844C46.3386 14.0844 46.1037 14.1373 45.9176 14.2431C45.7315 14.349 45.5852 14.4857 45.4744 14.6488C45.368 14.812 45.2971 14.9928 45.2484 15.178C45.2041 15.372 45.1819 15.5528 45.1819 15.7248V18.3925H44.5615V15.5396C44.5615 15.103 44.4817 14.7502 44.3221 14.4857C44.1582 14.2167 43.91 14.0844 43.5732 14.0844C43.3427 14.0844 43.1344 14.1241 42.9261 14.2035C42.7223 14.2784 42.5494 14.4019 42.3987 14.5562C42.2525 14.7194 42.1328 14.9222 42.0442 15.1647C41.96 15.4073 41.9112 15.6939 41.9112 16.0202V18.3881H41.2952V14.9839L41.3129 14.9884Z" fill="white"/>
<path d="M53.221 16.4126C53.221 16.6419 53.221 16.858 53.221 17.0388C53.2254 17.224 53.2343 17.3959 53.2343 17.5503C53.2387 17.7046 53.2476 17.8545 53.2609 17.9868C53.2697 18.1279 53.2875 18.2646 53.3052 18.4013H52.729C52.6847 18.1676 52.667 17.9119 52.667 17.6297H52.6448C52.4676 17.9339 52.246 18.1632 51.9801 18.3043C51.7186 18.4498 51.3818 18.5248 50.9785 18.5248C50.7702 18.5248 50.5663 18.4983 50.3669 18.4454C50.163 18.3969 49.9858 18.3131 49.8306 18.1985C49.6711 18.0927 49.547 17.9383 49.4451 17.7664C49.3431 17.5856 49.2988 17.3739 49.2988 17.1181C49.2988 16.7566 49.3919 16.4655 49.578 16.2539C49.7642 16.0422 49.9902 15.8835 50.265 15.7776C50.5353 15.6718 50.8234 15.6057 51.1336 15.5792C51.435 15.5483 51.7097 15.5307 51.9358 15.5307H52.6581V15.2441C52.6581 14.834 52.534 14.5386 52.277 14.3578C52.0244 14.1858 51.7097 14.0932 51.3242 14.0932C50.7746 14.0932 50.2871 14.2696 49.8705 14.6267L49.5116 14.2034C49.7376 13.9874 50.0168 13.8154 50.358 13.7051C50.6948 13.5993 51.0184 13.542 51.3286 13.542C51.9047 13.542 52.3656 13.6743 52.7069 13.9477C53.0526 14.2167 53.2254 14.6532 53.2254 15.2573V16.417L53.221 16.4126ZM51.9845 16.0202C51.7275 16.0202 51.4748 16.0422 51.2311 16.0731C50.9829 16.1084 50.7658 16.1657 50.5663 16.2451C50.3669 16.3244 50.2162 16.4391 50.0966 16.5714C49.9813 16.7081 49.9193 16.88 49.9193 17.0873C49.9193 17.2328 49.9547 17.3607 50.0168 17.4709C50.0833 17.5811 50.1719 17.6782 50.2738 17.7531C50.3758 17.8237 50.491 17.881 50.6195 17.9163C50.7436 17.9516 50.8721 17.9736 51.0006 17.9736C51.3286 17.9736 51.6034 17.9295 51.8161 17.8281C52.0288 17.7311 52.1972 17.6076 52.3258 17.4533C52.4543 17.2989 52.5429 17.1226 52.5917 16.9285C52.6404 16.7345 52.6626 16.5361 52.6626 16.3377V16.0158H51.9845V16.0202Z" fill="white"/>
<path d="M54.3652 15.0011C54.3652 14.9129 54.3652 14.8026 54.3563 14.6747C54.3519 14.5469 54.3474 14.419 54.343 14.2911C54.3386 14.1588 54.3341 14.0398 54.3253 13.9251C54.3253 13.8105 54.3164 13.7267 54.3164 13.665H54.9324C54.9369 13.8413 54.9457 14.0133 54.9457 14.1809C54.9457 14.344 54.9635 14.4454 54.9767 14.4984H55.0078C55.1363 14.2382 55.3357 14.0133 55.6238 13.8237C55.9119 13.6385 56.2531 13.5459 56.6342 13.5459C57.0065 13.5459 57.3123 13.6032 57.5428 13.7179C57.7776 13.8325 57.9593 13.9869 58.0967 14.1721C58.2297 14.3617 58.3183 14.5777 58.3715 14.8247C58.4247 15.0672 58.4513 15.3274 58.4513 15.5831V18.4052H57.8308V15.614C57.8308 15.4244 57.8175 15.2392 57.7776 15.054C57.7466 14.8732 57.689 14.7056 57.6004 14.5645C57.5117 14.419 57.3965 14.3088 57.237 14.2206C57.0819 14.1368 56.8824 14.0927 56.6342 14.0927C56.4082 14.0927 56.1955 14.1324 55.9916 14.2117C55.7878 14.2867 55.6194 14.4102 55.4687 14.5645C55.318 14.7277 55.2028 14.9305 55.1186 15.173C55.0299 15.4156 54.99 15.7022 54.99 16.0285V18.3964H54.3652V14.9922V15.0011Z" fill="white"/>
<path d="M60.8613 18.0398L63.7243 14.2299H61.012V13.6699H64.5796V14.0447L61.73 17.859H64.6993V18.4146H60.8613V18.0398Z" fill="white"/>
<path d="M65.2188 11.796C65.2188 11.6637 65.2675 11.5535 65.3517 11.4697C65.4403 11.3771 65.5511 11.333 65.6841 11.333C65.8126 11.333 65.919 11.3815 66.012 11.4741C66.1007 11.5579 66.145 11.6681 66.145 11.8004C66.145 11.9283 66.0962 12.0341 66.012 12.1267C65.919 12.2149 65.8082 12.259 65.6841 12.259C65.5511 12.259 65.4403 12.2193 65.3517 12.1267C65.2631 12.0341 65.2188 11.9283 65.2188 11.8004V11.796ZM65.3694 13.6745H65.9899V18.4148H65.3694V13.6745Z" fill="white"/>
<path d="M67.2114 15.0098C67.2114 14.9217 67.207 14.8114 67.2025 14.6835C67.1937 14.5557 67.1937 14.4278 67.1848 14.2999C67.1848 14.1676 67.1759 14.0486 67.1715 13.9339C67.1626 13.8193 67.1582 13.7355 67.1582 13.6737H67.7787C67.7831 13.8501 67.792 14.0221 67.792 14.1897C67.792 14.3528 67.8097 14.4542 67.8185 14.5072H67.8451C67.9737 14.247 68.182 14.0221 68.4656 13.8325C68.7537 13.6473 69.0905 13.5547 69.476 13.5547C69.8483 13.5547 70.1497 13.612 70.3801 13.7267C70.6194 13.8413 70.8011 13.9956 70.9341 14.1808C71.0671 14.3705 71.1601 14.5865 71.2133 14.8335C71.2621 15.076 71.2886 15.3361 71.2842 15.5919V18.414H70.6682V15.6228C70.6682 15.4332 70.6549 15.248 70.6194 15.0628C70.584 14.882 70.5264 14.7144 70.4377 14.5733C70.3535 14.4278 70.2294 14.3175 70.0788 14.2294C69.9281 14.1456 69.7242 14.1015 69.476 14.1015C69.25 14.1015 69.0373 14.1412 68.8334 14.2205C68.6296 14.2955 68.4523 14.419 68.3016 14.5733C68.1554 14.7364 68.0446 14.9393 67.9515 15.1818C67.8629 15.4243 67.823 15.711 67.823 16.0373V18.4052H67.2025V15.001L67.2114 15.0098Z" fill="white"/>
<path d="M77.0019 18.1146C77.0019 18.7011 76.9133 19.1773 76.7405 19.5389C76.5676 19.9005 76.3505 20.1783 76.1023 20.3812C75.8408 20.5752 75.5616 20.7119 75.2691 20.7824C74.9766 20.8486 74.7063 20.8794 74.4625 20.8794C74.2232 20.8794 73.9883 20.8574 73.7578 20.8133C73.5274 20.7692 73.3102 20.7075 73.1019 20.6237C72.8981 20.5355 72.7119 20.4297 72.5435 20.3062C72.3707 20.1827 72.2289 20.046 72.1048 19.8873L72.5923 19.4331C72.8094 19.7418 73.0842 19.9667 73.4122 20.1122C73.7445 20.2577 74.0991 20.3282 74.4669 20.3327C74.7816 20.3327 75.0475 20.2886 75.2647 20.2092C75.4818 20.1254 75.6635 20.0196 75.8053 19.8873C75.9472 19.7506 76.0535 19.6051 76.1333 19.4419C76.2131 19.2832 76.2707 19.1244 76.3106 18.9613C76.3505 18.8025 76.3726 18.6526 76.3815 18.5071C76.3815 18.3616 76.3859 18.2513 76.3859 18.1587V17.5017H76.3637C76.1865 17.7883 75.9427 18.0088 75.6369 18.1808C75.3267 18.3395 74.9722 18.4233 74.56 18.4233C74.2099 18.4233 73.8819 18.3616 73.5673 18.2337C73.2571 18.1102 72.9911 17.9339 72.7607 17.709C72.5258 17.4841 72.3485 17.2283 72.2111 16.9329C72.0826 16.6374 72.0117 16.3244 72.0117 15.9892C72.0117 15.6541 72.0826 15.341 72.2111 15.0456C72.3485 14.7502 72.5258 14.4944 72.7607 14.2739C72.9911 14.0534 73.2615 13.8815 73.5673 13.7536C73.8819 13.6257 74.2099 13.5596 74.56 13.5596C74.9722 13.5596 75.3267 13.6389 75.6369 13.8065C75.9427 13.9697 76.182 14.199 76.3637 14.4856H76.3859V13.683H77.0064V18.1146H77.0019ZM76.4036 15.9936C76.4036 15.7335 76.3549 15.4865 76.253 15.2617C76.151 15.028 76.0225 14.8339 75.8497 14.662C75.6812 14.4944 75.4818 14.3621 75.2514 14.2651C75.0165 14.1637 74.7772 14.1152 74.5201 14.1152C74.2586 14.1152 74.0105 14.1637 73.78 14.2651C73.5496 14.3621 73.3501 14.4944 73.1817 14.662C73.0133 14.8339 72.8803 15.028 72.7828 15.2617C72.6809 15.4865 72.6322 15.7335 72.6322 15.9936C72.6322 16.2538 72.6853 16.4963 72.7828 16.7256C72.8848 16.9549 73.0133 17.1534 73.1817 17.3209C73.3501 17.4885 73.5496 17.6252 73.78 17.7222C74.0105 17.8192 74.2542 17.8721 74.5201 17.8721C74.7772 17.8721 75.0209 17.8236 75.2558 17.7222C75.4907 17.6252 75.6901 17.4885 75.8585 17.3209C76.0269 17.1534 76.1599 16.9549 76.2618 16.7256C76.3637 16.4963 76.4125 16.2538 76.4125 15.9936H76.4036Z" fill="white"/>
<path d="M86.3573 17.9559C85.9363 18.194 85.4931 18.366 85.0322 18.463C84.5801 18.56 84.1148 18.6129 83.6406 18.6129C83.0822 18.6129 82.577 18.5159 82.1116 18.3307C81.6507 18.1411 81.2519 17.8765 80.9195 17.5414C80.5871 17.2019 80.3345 16.8006 80.1483 16.3332C79.9578 15.8613 79.8691 15.3542 79.8691 14.7986C79.8691 14.2474 79.9622 13.7315 80.1483 13.2729C80.3345 12.8055 80.5915 12.4087 80.9195 12.0647C81.2519 11.7252 81.6507 11.465 82.1116 11.271C82.577 11.0814 83.0866 10.9844 83.6406 10.9844C84.7264 10.9844 85.5995 11.3195 86.2731 11.9898L85.7767 12.5057C85.6704 12.3778 85.533 12.2543 85.369 12.1353C85.2095 12.0294 85.0322 11.928 84.8461 11.8486C84.6555 11.7693 84.4605 11.7075 84.2522 11.6679C84.0483 11.6238 83.8445 11.5973 83.645 11.5973C83.1753 11.5973 82.7454 11.6811 82.3598 11.8486C81.9831 12.0118 81.6552 12.2323 81.3848 12.5277C81.1189 12.8143 80.9106 13.1495 80.7644 13.5419C80.6181 13.93 80.5472 14.3533 80.5428 14.8031C80.5428 15.2528 80.6137 15.6761 80.7599 16.0642C80.9062 16.4566 81.11 16.7918 81.376 17.0828C81.6463 17.365 81.9698 17.5943 82.3465 17.7575C82.7277 17.925 83.162 18.0088 83.6317 18.0088C84.0217 18.0088 84.3896 17.9779 84.7353 17.9162C85.0809 17.8545 85.3912 17.7398 85.6748 17.5767V15.1294H83.9242V14.5164H86.3529V17.9647L86.3573 17.9559Z" fill="white"/>
<path d="M91.8531 17.5458C91.6138 17.9073 91.3168 18.1631 90.9623 18.3262C90.6077 18.4762 90.2177 18.56 89.7879 18.56C89.4289 18.56 89.0921 18.4982 88.7996 18.3703C88.5026 18.2469 88.2544 18.0749 88.0373 17.85C87.8246 17.6295 87.665 17.365 87.5454 17.0607C87.4346 16.7564 87.377 16.4213 87.377 16.0465C87.377 15.6937 87.4346 15.3674 87.5498 15.0676C87.6695 14.7677 87.8334 14.5032 88.0462 14.2827C88.2589 14.0622 88.5115 13.8858 88.7996 13.7623C89.0921 13.6345 89.4111 13.5771 89.7568 13.5771C90.1247 13.5771 90.4482 13.6389 90.7274 13.7668C91.0022 13.8946 91.237 14.0578 91.4232 14.2694C91.6138 14.4811 91.76 14.7192 91.8531 14.9838C91.9506 15.2528 91.9993 15.5218 91.9993 15.7952V16.2273H87.9974C87.9974 16.3552 88.0196 16.5183 88.0727 16.7212C88.1259 16.924 88.219 17.1224 88.3564 17.312C88.4893 17.5061 88.6799 17.6692 88.9059 17.8059C89.1408 17.9426 89.4377 18.0132 89.8012 18.0132C90.1158 18.0132 90.4216 17.9382 90.7185 17.7883C91.011 17.6384 91.2415 17.4311 91.401 17.1753L91.8531 17.559V17.5458ZM91.3789 15.6673C91.3789 15.4556 91.339 15.2528 91.2503 15.072C91.1661 14.8868 91.0509 14.7236 90.9047 14.5825C90.754 14.4458 90.5811 14.3356 90.3773 14.2562C90.1734 14.168 89.9607 14.1283 89.7347 14.1283C89.3979 14.1283 89.1142 14.1945 88.8971 14.3356C88.671 14.4679 88.4938 14.6266 88.3652 14.803C88.2323 14.9838 88.1392 15.1514 88.086 15.3189C88.0284 15.4865 88.0018 15.6011 88.0018 15.6629H91.3833L91.3789 15.6673Z" fill="white"/>
<path d="M92.7348 15.0284C92.7348 14.9402 92.7304 14.83 92.7215 14.7021C92.7127 14.5742 92.7082 14.4463 92.7038 14.3185C92.7038 14.1862 92.6949 14.0671 92.6905 13.9525C92.6816 13.8378 92.6816 13.754 92.6816 13.6923H93.3021C93.3021 13.8687 93.3154 14.0407 93.3154 14.2082C93.3154 14.3714 93.3242 14.4728 93.342 14.5257H93.373C93.4971 14.2655 93.701 14.0407 93.9979 13.851C94.2815 13.6658 94.6228 13.5732 95.0039 13.5732C95.3762 13.5732 95.6775 13.6306 95.9124 13.7452C96.1473 13.8599 96.329 14.0142 96.462 14.1994C96.5949 14.389 96.688 14.6051 96.7412 14.852C96.7899 15.0945 96.8165 15.3547 96.8165 15.6105V18.4326H96.1961V15.6413C96.1961 15.4517 96.1828 15.2665 96.1473 15.0813C96.1119 14.9005 96.0498 14.733 95.9656 14.5919C95.8814 14.4463 95.7617 14.3361 95.6066 14.2479C95.4515 14.1641 95.2477 14.12 94.9995 14.12C94.7734 14.12 94.5563 14.1597 94.3524 14.2391C94.153 14.314 93.9757 14.4375 93.825 14.5919C93.6788 14.755 93.568 14.9578 93.4749 15.2004C93.3907 15.4429 93.3464 15.7295 93.3464 16.0558V18.4238H92.726V15.0196L92.7348 15.0284Z" fill="white"/>
<path d="M97.5396 16.0685C97.5396 15.7026 97.6016 15.3718 97.7257 15.0632C97.8498 14.7589 98.0227 14.4987 98.2442 14.2783C98.4614 14.0534 98.7273 13.8814 99.0331 13.7623C99.3478 13.6389 99.6801 13.5771 100.048 13.5771C100.411 13.5771 100.748 13.6389 101.054 13.7623C101.36 13.8858 101.621 14.0578 101.847 14.2827C102.069 14.5032 102.246 14.7677 102.366 15.0676C102.49 15.3718 102.552 15.707 102.552 16.073C102.552 16.4345 102.49 16.7653 102.366 17.0695C102.242 17.3738 102.064 17.6384 101.843 17.8588C101.621 18.0793 101.355 18.2557 101.05 18.3747C100.744 18.4982 100.407 18.56 100.044 18.56C99.6757 18.56 99.3433 18.4982 99.0287 18.3703C98.7229 18.2469 98.457 18.0749 98.2398 17.85C98.0227 17.6295 97.8498 17.365 97.7213 17.0607C97.5972 16.7564 97.5352 16.4257 97.5352 16.0641L97.5396 16.0685ZM98.16 16.0685C98.16 16.3331 98.1999 16.5889 98.2886 16.8182C98.3772 17.0563 98.4924 17.2635 98.6608 17.4311C98.8248 17.6075 99.0242 17.7442 99.2591 17.85C99.494 17.9514 99.7511 18.0043 100.044 18.0043C100.332 18.0043 100.593 17.9514 100.824 17.85C101.058 17.7442 101.262 17.6075 101.426 17.4311C101.59 17.2635 101.719 17.0563 101.803 16.8182C101.887 16.5845 101.932 16.3287 101.932 16.0685C101.932 15.7996 101.887 15.5482 101.803 15.3145C101.719 15.0808 101.59 14.878 101.426 14.6972C101.262 14.5252 101.063 14.3797 100.824 14.2827C100.593 14.1768 100.332 14.1283 100.044 14.1283C99.7511 14.1283 99.494 14.1768 99.2591 14.2827C99.0242 14.3797 98.8248 14.5252 98.6608 14.6972C98.4924 14.8736 98.3728 15.0764 98.2886 15.3101C98.1999 15.5482 98.16 15.7996 98.1556 16.0641L98.16 16.0685Z" fill="white"/>
<path d="M103.433 15.0372C103.433 14.949 103.429 14.8388 103.424 14.7109C103.42 14.583 103.415 14.4551 103.411 14.3272C103.411 14.195 103.406 14.0759 103.398 13.9613C103.389 13.8466 103.389 13.7628 103.389 13.7011H104.005C104.005 13.8775 104.014 14.0494 104.018 14.217C104.018 14.3802 104.031 14.4816 104.045 14.5345H104.076C104.2 14.2743 104.404 14.0494 104.696 13.8598C104.984 13.6746 105.321 13.582 105.707 13.582C106.026 13.582 106.309 13.657 106.571 13.8246C106.832 13.9833 107.018 14.2435 107.138 14.605C107.289 14.2523 107.515 13.9921 107.816 13.829C108.113 13.6658 108.428 13.5864 108.76 13.5864C109.132 13.5864 109.434 13.6438 109.669 13.7584C109.899 13.8731 110.09 14.0274 110.223 14.2126C110.355 14.4022 110.444 14.6183 110.497 14.8652C110.555 15.1077 110.577 15.3679 110.577 15.6237V18.4458H109.957V15.6545C109.957 15.4649 109.943 15.2797 109.908 15.0945C109.877 14.9137 109.81 14.7462 109.731 14.605C109.642 14.4595 109.522 14.3493 109.367 14.2611C109.212 14.1773 109.013 14.1332 108.764 14.1332C108.476 14.1332 108.237 14.1861 108.055 14.292C107.869 14.3978 107.723 14.5345 107.617 14.6977C107.506 14.8608 107.435 15.0416 107.391 15.2268C107.346 15.4208 107.324 15.6016 107.324 15.7736V18.4414H106.699V15.5884C106.699 15.1518 106.624 14.7991 106.46 14.5345C106.296 14.2655 106.052 14.1332 105.715 14.1332C105.489 14.1332 105.277 14.1729 105.073 14.2523C104.869 14.3272 104.696 14.4507 104.545 14.605C104.395 14.7682 104.279 14.971 104.191 15.2136C104.102 15.4561 104.062 15.7427 104.062 16.069V18.437H103.446V15.0328L103.433 15.0372Z" fill="white"/>
<path d="M111.602 11.8351C111.602 11.7028 111.646 11.5925 111.735 11.5088C111.819 11.4162 111.934 11.3721 112.062 11.3721C112.195 11.3721 112.297 11.4206 112.395 11.5132C112.483 11.597 112.523 11.7072 112.523 11.8395C112.523 11.9674 112.483 12.0732 112.395 12.1658C112.297 12.254 112.191 12.2981 112.062 12.2981C111.934 12.2981 111.819 12.2584 111.735 12.1658C111.641 12.0732 111.602 11.9674 111.602 11.8395V11.8351ZM111.757 13.7091H112.373V18.4494H111.757V13.7091Z" fill="white"/>
<path d="M117.402 17.7578C117.162 18.04 116.901 18.2429 116.608 18.384C116.311 18.5163 115.988 18.5824 115.647 18.5824C115.283 18.5824 114.946 18.5207 114.636 18.3928C114.326 18.2693 114.064 18.0974 113.843 17.8769C113.621 17.6564 113.448 17.3918 113.324 17.0876C113.205 16.7833 113.143 16.4526 113.143 16.091C113.143 15.725 113.205 15.3943 113.329 15.0856C113.453 14.7814 113.626 14.5212 113.847 14.3007C114.069 14.0758 114.33 13.9039 114.641 13.7848C114.951 13.6613 115.288 13.5996 115.651 13.5996C116.001 13.5996 116.32 13.6702 116.626 13.8113C116.923 13.9568 117.193 14.1596 117.428 14.4198L116.932 14.7858C116.75 14.5918 116.555 14.433 116.342 14.3184C116.13 14.2125 115.899 14.1508 115.651 14.1508C115.363 14.1508 115.101 14.1993 114.867 14.3051C114.632 14.4021 114.432 14.5477 114.268 14.7196C114.104 14.896 113.98 15.0989 113.892 15.3326C113.803 15.5707 113.763 15.822 113.763 16.0866C113.763 16.3512 113.803 16.6069 113.892 16.8362C113.976 17.0743 114.1 17.2816 114.264 17.4492C114.428 17.6255 114.632 17.7622 114.862 17.8681C115.097 17.9695 115.358 18.0224 115.647 18.0224C115.908 18.0224 116.147 17.9651 116.36 17.8416C116.577 17.7225 116.768 17.5638 116.927 17.3698L117.402 17.7578Z" fill="white"/>
<path d="M118.369 17.2463C118.498 17.4976 118.693 17.6916 118.945 17.8239C119.198 17.9606 119.473 18.0268 119.752 18.0268C119.876 18.0268 120.009 18.0047 120.142 17.9695C120.271 17.9298 120.39 17.868 120.492 17.7931C120.599 17.7181 120.683 17.6299 120.745 17.5241C120.811 17.4227 120.842 17.2948 120.842 17.1625C120.842 16.942 120.776 16.7789 120.63 16.6642C120.488 16.5584 120.315 16.4702 120.111 16.4129C119.903 16.3511 119.681 16.2982 119.433 16.2541C119.185 16.2056 118.959 16.1395 118.75 16.0425C118.542 15.9499 118.369 15.8264 118.232 15.6633C118.09 15.4913 118.019 15.2664 118.019 14.9665C118.019 14.7328 118.068 14.53 118.161 14.3624C118.263 14.1905 118.387 14.0449 118.538 13.9347C118.693 13.8245 118.866 13.7363 119.061 13.6878C119.256 13.6304 119.451 13.6084 119.65 13.6084C120.045 13.6084 120.381 13.679 120.665 13.8201C120.949 13.9656 121.17 14.1905 121.33 14.4991L120.771 14.8254C120.652 14.6094 120.505 14.4418 120.333 14.3272C120.151 14.2213 119.929 14.1596 119.646 14.1596C119.535 14.1596 119.42 14.1728 119.3 14.2081C119.185 14.2434 119.078 14.2919 118.976 14.3536C118.883 14.4109 118.799 14.4947 118.737 14.5917C118.671 14.6887 118.64 14.7946 118.64 14.918C118.64 15.1297 118.711 15.2884 118.852 15.3899C118.99 15.4869 119.163 15.5707 119.366 15.6324C119.579 15.6853 119.805 15.7382 120.053 15.7823C120.293 15.822 120.528 15.8926 120.731 15.9807C120.935 16.0733 121.113 16.2056 121.254 16.382C121.392 16.5584 121.463 16.8053 121.463 17.1228C121.463 17.3698 121.418 17.5814 121.321 17.7666C121.228 17.9474 121.104 18.0973 120.94 18.2252C120.776 18.3487 120.594 18.4369 120.39 18.4986C120.182 18.5603 119.965 18.5912 119.739 18.5912C119.331 18.5912 118.95 18.5074 118.613 18.3575C118.272 18.1943 118.01 17.9518 117.824 17.6255L118.369 17.2595V17.2463Z" fill="white"/>
<path d="M59.315 11.7911C59.315 11.6588 59.3593 11.5486 59.4479 11.4648C59.5366 11.3722 59.6429 11.3281 59.7759 11.3281C59.9044 11.3281 60.0152 11.3766 60.1038 11.4692C60.1925 11.553 60.2368 11.6633 60.2368 11.7955C60.2368 11.9234 60.188 12.0292 60.1038 12.1218C60.0108 12.21 59.9044 12.2541 59.7715 12.2541C59.6385 12.2541 59.5321 12.2144 59.4435 12.1218C59.3549 12.0292 59.3105 11.9234 59.3105 11.7955L59.315 11.7911ZM59.4657 13.6696H60.0861V18.4099H59.4657V13.6696Z" fill="white"/>
<path d="M13.0457 7.61091C13.1875 8.66039 13.5465 10.0185 14.1182 10.6976C14.9912 11.7339 15.7402 9.63049 15.7624 8.50164C15.7845 7.25815 15.1331 6.14253 14.2423 5.98379C13.1831 5.79417 12.9349 6.7731 13.0457 7.61532V7.61091Z" fill="#E50050"/>
<path d="M24.4497 35.8681C19.362 31.4718 12.9137 30.7883 8.92067 30.1269C9.28408 28.3807 9.85135 26.5199 10.6757 24.5532C11.6861 22.1456 12.1515 20.664 12.28 19.4425C12.3021 19.2265 12.085 18.9266 11.859 19.3852C11.4867 20.1348 9.85578 23.4464 8.76113 25.3602C6.88205 25.1529 4.75921 25.3337 3.32774 25.8099C3.45626 25.6556 3.79751 25.3557 3.97921 25.2058C5.67659 23.7859 10.6314 21.0741 16.632 12.6783C16.8093 12.4269 16.8758 12.1623 16.7605 11.8713L16.5478 11.3642C16.4326 11.157 16.1578 11.0511 15.9362 11.3951C15.4797 12.1006 14.4826 13.8777 12.5415 15.9766C12.506 15.3593 12.2578 14.6802 12.1603 14.3054C11.695 12.4754 10.6136 8.72729 12.8783 4.28687C13.9153 2.25847 14.0571 1.7646 12.5725 0.313853C12.0938 -0.15797 11.4823 -0.109465 11.1366 0.574017C9.98874 2.82289 8.57056 5.53036 10.0907 11.3907C10.6491 13.5425 12.0495 16.4661 11.5753 17.0217C9.81147 19.0942 7.52466 20.7698 4.59967 22.688C1.91399 24.4386 0.358431 24.9898 0.0526365 26.4273C-0.199976 27.6311 0.358431 29.4125 3.90387 30.4267C4.84785 30.6957 5.80955 30.8897 6.29261 30.9912C4.57308 37.751 5.32205 42.6192 8.05204 47.2272C9.21317 49.1894 10.8928 50.0405 12.7187 50.0008C13.4633 49.9831 13.7602 49.3437 13.2993 48.7088C12.9359 48.2149 10.7599 45.8117 9.43476 41.7328C9.38158 41.5344 9.39044 41.3404 9.44363 41.1376C9.44363 41.1376 9.44363 41.1331 9.44363 41.1287C11.1011 35.921 14.7219 33.7692 15.4044 33.4032C15.6482 33.2974 15.8875 33.3238 16.1445 33.4164C17.5494 33.9147 18.9942 34.7966 20.0179 35.5815C20.9796 36.3179 20.9486 37.363 19.6634 38.6682C16.7694 41.605 15.4399 43.7701 14.7707 45.04C14.3541 45.8293 14.1502 46.4908 14.2787 47.2272C14.425 48.0738 14.9834 48.0958 15.5639 47.355C17.5228 44.8372 19.3576 42.628 23.8824 39.5545C25.9078 38.1787 25.7482 36.9882 24.4497 35.8681ZM6.69591 29.6947C5.20682 29.4566 4.09887 29.0686 3.34103 28.2705C2.97319 27.8824 2.80035 27.4326 2.85354 26.9564C4.09887 26.5551 5.73864 26.4625 8.0609 26.8329C7.66647 27.6619 7.10364 28.7687 6.69148 29.6947H6.69591ZM12.9713 32.5433C12.8384 32.6668 12.7187 32.7859 12.6345 32.8696C10.2015 35.0083 9.15113 37.7157 8.75227 39.0783C8.33124 36.8338 8.22488 34.2234 8.70795 31.2646C9.67851 31.3968 10.977 31.6394 12.3642 32.0098C12.537 32.0583 12.7099 32.1024 12.8783 32.1509C12.896 32.1509 12.9093 32.1597 12.927 32.1685C13.122 32.2391 13.1353 32.3846 12.9713 32.5433Z" fill="url(#paint0_linear_170_4326)"/>
</g>
<defs>
<linearGradient id="paint0_linear_170_4326" x1="12.7305" y1="2.16806" x2="12.6905" y2="48.2347" gradientUnits="userSpaceOnUse">
<stop stop-color="#8FC31F"/>
<stop offset="0.3" stop-color="#38B572"/>
<stop offset="0.51" stop-color="#00ADA9"/>
<stop offset="0.61" stop-color="#008C98"/>
<stop offset="0.88" stop-color="#003F72"/>
<stop offset="1" stop-color="#002163"/>
</linearGradient>
<clipPath id="clip0_170_4326">
<rect width="134" height="50" fill="white"/>
</clipPath>
</defs>
</svg>
