<svg width="50" height="50" viewBox="0 0 50 50" fill="none" xmlns="http://www.w3.org/2000/svg">
<g id="icons">
<g id="Group">
<path id="Vector" d="M29.5692 48.9571V36.2324L39.0784 36.2773C42.5797 36.2773 45.4171 33.4399 45.4171 29.9386C45.4171 26.4373 42.5797 23.5999 39.0784 23.5999C42.5797 23.5999 45.4171 20.7625 45.4171 17.2612C45.4171 13.7599 42.5797 10.9225 39.0784 10.9225H23.2305V4.58618" stroke="black" stroke-width="2" stroke-linecap="round" stroke-linejoin="round"/>
<path id="Vector_2" d="M39.4059 17.2637H7.38167C3.88038 17.2637 1.04297 20.1011 1.04297 23.6024C1.04297 27.1037 3.88038 29.9411 7.38167 29.9411C3.88038 29.9411 1.04297 32.7785 1.04297 36.2798C1.04297 39.7811 3.88038 42.6185 7.38167 42.6185H23.2296V48.9572" stroke="black" stroke-width="2" stroke-linecap="round" stroke-linejoin="round"/>
<path id="Vector_3" d="M7.38281 29.9409H39.0763" stroke="black" stroke-width="2" stroke-linecap="round" stroke-linejoin="round"/>
<path id="Vector_4" d="M39.0763 23.6023H7.38281" stroke="black" stroke-width="2" stroke-linecap="round" stroke-linejoin="round"/>
<path id="Vector_5" d="M29.5694 36.2349H7.38281" stroke="black" stroke-width="2" stroke-linecap="round" stroke-linejoin="round"/>
<path id="Vector_6" d="M16.8867 4.58618V17.2636" stroke="black" stroke-width="2" stroke-linecap="round" stroke-linejoin="round"/>
</g>
<g id="Group 201">
<path id="Vector_7" d="M43.9027 44.0773L39.7384 39.7987C40.5339 38.4481 40.9972 36.88 40.9972 35.1995C40.9972 30.1767 36.9243 26.1064 31.8984 26.1064C26.8725 26.1064 22.8008 30.1767 22.8008 35.1984C22.8008 40.22 26.8748 44.2914 31.8996 44.2914C33.6609 44.2914 35.2996 43.7834 36.6927 42.9165L40.8582 47.1952C41.6989 48.0574 43.0643 48.0574 43.9039 47.1952C44.7469 46.3353 44.7469 44.9361 43.9039 44.0762L43.9027 44.0773Z" fill="#F9F9F9" stroke="#FF7F40" stroke-width="2" stroke-linejoin="round"/>
<g id="Group_2">
<g id="Group_3">
<path id="Vector_8" d="M33.52 28.7051C33.2279 29.6499 32.5985 30.2656 31.9677 30.8814C31.3204 31.5136 30.6717 32.1471 30.3906 33.14" stroke="#FF7F40" stroke-linecap="round" stroke-linejoin="round"/>
<path id="Vector_9" d="M33.5434 33.14C33.2623 32.1485 32.6137 31.5149 31.9664 30.8814C31.3356 30.2656 30.7062 29.6499 30.4141 28.7051" stroke="#FF7F40" stroke-linecap="round" stroke-linejoin="round"/>
</g>
<g id="Group_4">
<path id="Vector_10" d="M33.52 37.3445C33.2279 38.2893 32.5985 38.9051 31.9677 39.5208C31.3204 40.153 30.6717 40.7865 30.3906 41.7794" stroke="#FF7F40" stroke-linecap="round" stroke-linejoin="round"/>
<path id="Vector_11" d="M33.5434 41.7794C33.2623 40.7879 32.6137 40.1543 31.9664 39.5208C31.3356 38.9051 30.7062 38.2893 30.4141 37.3445" stroke="#FF7F40" stroke-linecap="round" stroke-linejoin="round"/>
</g>
</g>
<g id="Group_5">
<g id="Group_6">
<path id="Vector_12" d="M27.3789 32.5684C27.841 33.4419 27.8301 34.3237 27.8205 35.2054C27.8095 36.1105 27.7999 37.0169 28.3018 37.9179" stroke="#FF7F40" stroke-linecap="round" stroke-linejoin="round"/>
<path id="Vector_13" d="M30.5318 35.6868C29.6322 35.1849 28.7257 35.1959 27.8207 35.2055C26.9403 35.2165 26.0585 35.2261 25.1836 34.7639" stroke="#FF7F40" stroke-linecap="round" stroke-linejoin="round"/>
</g>
<g id="Group_7">
<path id="Vector_14" d="M36.5635 32.5684C36.1014 33.4419 36.1124 34.3237 36.122 35.2054C36.1329 36.1105 36.1425 37.0169 35.6406 37.9179" stroke="#FF7F40" stroke-linecap="round" stroke-linejoin="round"/>
<path id="Vector_15" d="M33.4102 35.6868C34.3097 35.1849 35.2162 35.1959 36.1213 35.2055C37.0017 35.2165 37.8834 35.2261 38.7583 34.7639" stroke="#FF7F40" stroke-linecap="round" stroke-linejoin="round"/>
</g>
</g>
</g>
</g>
</svg>
