<svg width="50" height="50" viewBox="0 0 50 50" fill="none" xmlns="http://www.w3.org/2000/svg">
<g id="Icons">
<g id="Group">
<g id="Group_2">
<path id="Vector" d="M43.4431 42.0044C40.5117 36.463 29.5508 35.4941 29.5508 28.2739C29.5508 21.0538 40.5117 20.0849 43.4431 14.5435" stroke="#FF7F40" stroke-width="2" stroke-linecap="round" stroke-linejoin="round"/>
<path id="Vector_2" d="M30.2734 14.5435C33.2048 20.0849 44.1657 21.0538 44.1657 28.2739C44.1657 35.4941 33.2048 36.463 30.2734 42.0044" stroke="#FF7F40" stroke-width="2" stroke-linecap="round" stroke-linejoin="round"/>
</g>
<g id="Group_3">
<path id="Vector_3" d="M32.4375 25.8101H41.2629" stroke="#FF7F40" stroke-width="2" stroke-linecap="round" stroke-linejoin="round"/>
<path id="Vector_4" d="M32.457 30.7349H41.2824" stroke="#FF7F40" stroke-width="2" stroke-linecap="round" stroke-linejoin="round"/>
</g>
</g>
<g id="Group_4">
<path id="Vector_5" d="M7.34766 6.64835C7.34766 9.30378 9.34787 11.4566 11.8163 11.4566C14.2847 11.4566 16.2849 9.30378 16.2849 6.64835C16.2849 3.99293 14.2847 1.84009 11.8163 1.84009C9.34787 1.84009 7.34766 3.99293 7.34766 6.64835Z" stroke="black" stroke-width="2" stroke-linecap="round" stroke-linejoin="round"/>
<path id="Vector_6" d="M5.50014 33.7078H4.75103C2.81844 33.7078 1.25 32.1456 1.25 30.2208V19.5939C1.25 16.669 3.62997 14.2986 6.56657 14.2986H17.0567C19.9933 14.2986 22.3732 16.669 22.3732 19.5939V30.2208C22.3732 32.1456 20.8048 33.7078 18.8722 33.7078H17.8968" stroke="black" stroke-width="2" stroke-linecap="round" stroke-linejoin="round"/>
<g id="Group_5">
<path id="Vector_7" d="M5.77344 20.739V35.5602L6.54855 48.7311" stroke="black" stroke-width="2" stroke-linecap="round" stroke-linejoin="round"/>
<path id="Vector_8" d="M17.8454 20.739V35.5602L17.0703 48.7311" stroke="black" stroke-width="2" stroke-linecap="round" stroke-linejoin="round"/>
</g>
<path id="Vector_9" d="M11.8125 35.0913V48.7311" stroke="black" stroke-width="2" stroke-linecap="round" stroke-linejoin="round"/>
</g>
</g>
</svg>
