<svg width="16" height="16" viewBox="0 0 16 16" fill="none" xmlns="http://www.w3.org/2000/svg">
<g id="Frame 98">
<path id="Rectangle" d="M15 13.7895V6.97526C15 6.56295 15 6.35679 14.9487 6.1657C14.9032 5.99638 14.8284 5.83634 14.7277 5.69285C14.614 5.5309 14.4559 5.39865 14.1396 5.13416L9.53959 1.28747C8.99204 0.829583 8.71827 0.600642 8.41249 0.513183C8.1429 0.436077 7.8571 0.436077 7.58751 0.513183C7.28173 0.600642 7.00796 0.829584 6.4604 1.28747L1.8604 5.13416C1.54411 5.39865 1.38597 5.5309 1.27229 5.69285C1.17156 5.83634 1.09677 5.99638 1.05131 6.1657C1 6.35679 1 6.56295 1 6.97526V13.7895C1 14.4513 1 14.7823 1.10261 15.0453C1.25505 15.4359 1.56407 15.7449 1.95474 15.8974C2.21771 16 2.54865 16 3.21053 16C3.8724 16 4.20334 16 4.46631 15.8974C4.85698 15.7449 5.166 15.4359 5.31844 15.0453C5.42105 14.7823 5.42105 14.4513 5.42105 13.7895V11.7659C5.42105 10.9258 5.42105 10.5057 5.58454 10.1849C5.72835 9.90262 5.95782 9.67315 6.24007 9.52934C6.56093 9.36585 6.98097 9.36585 7.82105 9.36585H8.17895C9.01903 9.36585 9.43906 9.36585 9.75993 9.52934C10.0422 9.67315 10.2716 9.90262 10.4155 10.1849C10.5789 10.5057 10.5789 10.9258 10.5789 11.7659V13.7895C10.5789 14.4513 10.5789 14.7823 10.6816 15.0453C10.834 15.4359 11.143 15.7449 11.5337 15.8974C11.7967 16 12.1276 16 12.7895 16C13.4513 16 13.7823 16 14.0453 15.8974C14.4359 15.7449 14.7449 15.4359 14.8974 15.0453C15 14.7823 15 14.4513 15 13.7895Z" fill="black"/>
</g>
</svg>
